solid CATIA STL
  facet normal  -0.000000e+000  0.000000e+000 -1.000000e+000
    outer loop
      vertex  9.500000e+000  6.000000e+000  0.000000e+000
      vertex  9.595491e+000  5.706107e+000  0.000000e+000
      vertex  7.000000e+000 -5.000000e+000  0.000000e+000
    endloop
  endfacet
  facet normal  -0.000000e+000  0.000000e+000 -1.000000e+000
    outer loop
      vertex  9.595491e+000  5.706107e+000  0.000000e+000
      vertex  9.845491e+000  5.524472e+000  0.000000e+000
      vertex  7.000000e+000 -5.000000e+000  0.000000e+000
    endloop
  endfacet
  facet normal  0.000000e+000  0.000000e+000 -1.000000e+000
    outer loop
      vertex  1.300000e+001 -5.000000e+000  0.000000e+000
      vertex  7.000000e+000 -5.000000e+000  0.000000e+000
      vertex  9.845491e+000  5.524472e+000  0.000000e+000
    endloop
  endfacet
  facet normal  0.000000e+000  0.000000e+000 -9.999999e-001
    outer loop
      vertex  1.300000e+001 -5.000000e+000  0.000000e+000
      vertex  9.845491e+000  5.524472e+000  0.000000e+000
      vertex  1.015451e+001  5.524472e+000  0.000000e+000
    endloop
  endfacet
  facet normal  0.000000e+000  0.000000e+000 -1.000000e+000
    outer loop
      vertex  1.300000e+001 -5.000000e+000  0.000000e+000
      vertex  1.015451e+001  5.524472e+000  0.000000e+000
      vertex  1.040451e+001  5.706107e+000  0.000000e+000
    endloop
  endfacet
  facet normal  0.000000e+000  0.000000e+000 -1.000000e+000
    outer loop
      vertex  1.300000e+001 -5.000000e+000  0.000000e+000
      vertex  1.040451e+001  5.706107e+000  0.000000e+000
      vertex  1.050000e+001  6.000000e+000  0.000000e+000
    endloop
  endfacet
  facet normal  -0.000000e+000  0.000000e+000 -9.999999e-001
    outer loop
      vertex  7.000000e+000  1.000000e+001  0.000000e+000
      vertex  1.300000e+001  1.000000e+001  0.000000e+000
      vertex  1.015451e+001  6.475528e+000  0.000000e+000
    endloop
  endfacet
  facet normal  0.000000e+000  0.000000e+000 -1.000000e+000
    outer loop
      vertex  7.000000e+000  1.000000e+001  0.000000e+000
      vertex  1.015451e+001  6.475528e+000  0.000000e+000
      vertex  9.845491e+000  6.475528e+000  0.000000e+000
    endloop
  endfacet
  facet normal  -0.000000e+000  0.000000e+000 -1.000000e+000
    outer loop
      vertex  7.000000e+000  1.000000e+001  0.000000e+000
      vertex  9.845491e+000  6.475528e+000  0.000000e+000
      vertex  9.595491e+000  6.293893e+000  0.000000e+000
    endloop
  endfacet
  facet normal  -0.000000e+000  0.000000e+000 -1.000000e+000
    outer loop
      vertex  7.000000e+000  1.000000e+001  0.000000e+000
      vertex  9.595491e+000  6.293893e+000  0.000000e+000
      vertex  9.500000e+000  6.000000e+000  0.000000e+000
    endloop
  endfacet
  facet normal  -0.000000e+000  0.000000e+000 -1.000000e+000
    outer loop
      vertex  7.000000e+000  1.000000e+001  0.000000e+000
      vertex  9.500000e+000  6.000000e+000  0.000000e+000
      vertex  7.000000e+000 -5.000000e+000  0.000000e+000
    endloop
  endfacet
  facet normal  0.000000e+000  0.000000e+000 -1.000000e+000
    outer loop
      vertex  1.300000e+001  1.000000e+001  0.000000e+000
      vertex  1.300000e+001 -5.000000e+000  0.000000e+000
      vertex  1.050000e+001  6.000000e+000  0.000000e+000
    endloop
  endfacet
  facet normal  0.000000e+000  0.000000e+000 -1.000000e+000
    outer loop
      vertex  1.300000e+001  1.000000e+001  0.000000e+000
      vertex  1.050000e+001  6.000000e+000  0.000000e+000
      vertex  1.040451e+001  6.293893e+000  0.000000e+000
    endloop
  endfacet
  facet normal  0.000000e+000  0.000000e+000 -1.000000e+000
    outer loop
      vertex  1.300000e+001  1.000000e+001  0.000000e+000
      vertex  1.040451e+001  6.293893e+000  0.000000e+000
      vertex  1.015451e+001  6.475528e+000  0.000000e+000
    endloop
  endfacet
  facet normal  -0.000000e+000  0.000000e+000 -1.000000e+000
    outer loop
      vertex -1.050000e+001  6.000000e+000  0.000000e+000
      vertex -1.040451e+001  5.706107e+000  0.000000e+000
      vertex -1.300000e+001 -5.000000e+000  0.000000e+000
    endloop
  endfacet
  facet normal  -0.000000e+000  0.000000e+000 -1.000000e+000
    outer loop
      vertex -1.040451e+001  5.706107e+000  0.000000e+000
      vertex -1.015451e+001  5.524472e+000  0.000000e+000
      vertex -1.300000e+001 -5.000000e+000  0.000000e+000
    endloop
  endfacet
  facet normal  0.000000e+000  0.000000e+000 -1.000000e+000
    outer loop
      vertex -7.000000e+000 -5.000000e+000  0.000000e+000
      vertex -1.300000e+001 -5.000000e+000  0.000000e+000
      vertex -1.015451e+001  5.524472e+000  0.000000e+000
    endloop
  endfacet
  facet normal  0.000000e+000  0.000000e+000 -9.999999e-001
    outer loop
      vertex -7.000000e+000 -5.000000e+000  0.000000e+000
      vertex -1.015451e+001  5.524472e+000  0.000000e+000
      vertex -9.845491e+000  5.524472e+000  0.000000e+000
    endloop
  endfacet
  facet normal  0.000000e+000  0.000000e+000 -1.000000e+000
    outer loop
      vertex -7.000000e+000 -5.000000e+000  0.000000e+000
      vertex -9.845491e+000  5.524472e+000  0.000000e+000
      vertex -9.595491e+000  5.706107e+000  0.000000e+000
    endloop
  endfacet
  facet normal  0.000000e+000  0.000000e+000 -1.000000e+000
    outer loop
      vertex -7.000000e+000 -5.000000e+000  0.000000e+000
      vertex -9.595491e+000  5.706107e+000  0.000000e+000
      vertex -9.500000e+000  6.000000e+000  0.000000e+000
    endloop
  endfacet
  facet normal  -0.000000e+000  0.000000e+000 -9.999999e-001
    outer loop
      vertex -1.300000e+001  1.000000e+001  0.000000e+000
      vertex -7.000000e+000  1.000000e+001  0.000000e+000
      vertex -9.845491e+000  6.475528e+000  0.000000e+000
    endloop
  endfacet
  facet normal  0.000000e+000  0.000000e+000 -1.000000e+000
    outer loop
      vertex -1.300000e+001  1.000000e+001  0.000000e+000
      vertex -9.845491e+000  6.475528e+000  0.000000e+000
      vertex -1.015451e+001  6.475528e+000  0.000000e+000
    endloop
  endfacet
  facet normal  -0.000000e+000  0.000000e+000 -1.000000e+000
    outer loop
      vertex -1.300000e+001  1.000000e+001  0.000000e+000
      vertex -1.015451e+001  6.475528e+000  0.000000e+000
      vertex -1.040451e+001  6.293893e+000  0.000000e+000
    endloop
  endfacet
  facet normal  -0.000000e+000  0.000000e+000 -1.000000e+000
    outer loop
      vertex -1.300000e+001  1.000000e+001  0.000000e+000
      vertex -1.040451e+001  6.293893e+000  0.000000e+000
      vertex -1.050000e+001  6.000000e+000  0.000000e+000
    endloop
  endfacet
  facet normal  -0.000000e+000  0.000000e+000 -1.000000e+000
    outer loop
      vertex -1.300000e+001  1.000000e+001  0.000000e+000
      vertex -1.050000e+001  6.000000e+000  0.000000e+000
      vertex -1.300000e+001 -5.000000e+000  0.000000e+000
    endloop
  endfacet
  facet normal  0.000000e+000  0.000000e+000 -1.000000e+000
    outer loop
      vertex -7.000000e+000  1.000000e+001  0.000000e+000
      vertex -7.000000e+000 -5.000000e+000  0.000000e+000
      vertex -9.500000e+000  6.000000e+000  0.000000e+000
    endloop
  endfacet
  facet normal  0.000000e+000  0.000000e+000 -1.000000e+000
    outer loop
      vertex -7.000000e+000  1.000000e+001  0.000000e+000
      vertex -9.500000e+000  6.000000e+000  0.000000e+000
      vertex -9.595491e+000  6.293893e+000  0.000000e+000
    endloop
  endfacet
  facet normal  0.000000e+000  0.000000e+000 -1.000000e+000
    outer loop
      vertex -7.000000e+000  1.000000e+001  0.000000e+000
      vertex -9.595491e+000  6.293893e+000  0.000000e+000
      vertex -9.845491e+000  6.475528e+000  0.000000e+000
    endloop
  endfacet
  facet normal  0.000000e+000  0.000000e+000  1.000000e+000
    outer loop
      vertex  7.000000e+000 -5.000000e+000  5.000000e+000
      vertex  9.595491e+000  5.706107e+000  5.000000e+000
      vertex  9.500000e+000  6.000000e+000  5.000000e+000
    endloop
  endfacet
  facet normal  0.000000e+000  0.000000e+000  1.000000e+000
    outer loop
      vertex  7.000000e+000 -5.000000e+000  5.000000e+000
      vertex  9.845491e+000  5.524472e+000  5.000000e+000
      vertex  9.595491e+000  5.706107e+000  5.000000e+000
    endloop
  endfacet
  facet normal  0.000000e+000  0.000000e+000  1.000000e+000
    outer loop
      vertex -7.000000e+000 -5.000000e+000  5.000000e+000
      vertex -9.595491e+000  5.706107e+000  5.000000e+000
      vertex -9.845491e+000  5.524472e+000  5.000000e+000
    endloop
  endfacet
  facet normal  0.000000e+000  0.000000e+000  1.000000e+000
    outer loop
      vertex -7.000000e+000 -5.000000e+000  5.000000e+000
      vertex -9.500000e+000  6.000000e+000  5.000000e+000
      vertex -9.595491e+000  5.706107e+000  5.000000e+000
    endloop
  endfacet
  facet normal  0.000000e+000  0.000000e+000  9.999999e-001
    outer loop
      vertex  1.300000e+001 -1.000000e+001  5.000000e+000
      vertex  1.050000e+001  6.000000e+000  5.000000e+000
      vertex  1.040451e+001  5.706107e+000  5.000000e+000
    endloop
  endfacet
  facet normal  0.000000e+000  0.000000e+000  1.000000e+000
    outer loop
      vertex  1.300000e+001 -1.000000e+001  5.000000e+000
      vertex  1.040451e+001  5.706107e+000  5.000000e+000
      vertex  1.015451e+001  5.524472e+000  5.000000e+000
    endloop
  endfacet
  facet normal  0.000000e+000  0.000000e+000  1.000000e+000
    outer loop
      vertex  1.300000e+001 -1.000000e+001  5.000000e+000
      vertex  1.015451e+001  5.524472e+000  5.000000e+000
      vertex  9.845491e+000  5.524472e+000  5.000000e+000
    endloop
  endfacet
  facet normal  0.000000e+000  0.000000e+000  1.000000e+000
    outer loop
      vertex  1.300000e+001 -1.000000e+001  5.000000e+000
      vertex  9.845491e+000  5.524472e+000  5.000000e+000
      vertex  7.000000e+000 -5.000000e+000  5.000000e+000
    endloop
  endfacet
  facet normal  0.000000e+000  0.000000e+000  1.000000e+000
    outer loop
      vertex  1.300000e+001 -1.000000e+001  5.000000e+000
      vertex  7.000000e+000 -5.000000e+000  5.000000e+000
      vertex -1.300000e+001 -1.000000e+001  5.000000e+000
    endloop
  endfacet
  facet normal  0.000000e+000  0.000000e+000  1.000000e+000
    outer loop
      vertex -1.300000e+001 -1.000000e+001  5.000000e+000
      vertex  7.000000e+000 -5.000000e+000  5.000000e+000
      vertex -7.000000e+000 -5.000000e+000  5.000000e+000
    endloop
  endfacet
  facet normal  0.000000e+000  0.000000e+000  1.000000e+000
    outer loop
      vertex -1.300000e+001 -1.000000e+001  5.000000e+000
      vertex -7.000000e+000 -5.000000e+000  5.000000e+000
      vertex -9.845491e+000  5.524472e+000  5.000000e+000
    endloop
  endfacet
  facet normal  0.000000e+000  0.000000e+000  1.000000e+000
    outer loop
      vertex -1.300000e+001 -1.000000e+001  5.000000e+000
      vertex -9.845491e+000  5.524472e+000  5.000000e+000
      vertex -1.015451e+001  5.524472e+000  5.000000e+000
    endloop
  endfacet
  facet normal  0.000000e+000  0.000000e+000  1.000000e+000
    outer loop
      vertex -1.300000e+001 -1.000000e+001  5.000000e+000
      vertex -1.015451e+001  5.524472e+000  5.000000e+000
      vertex -1.040451e+001  5.706107e+000  5.000000e+000
    endloop
  endfacet
  facet normal  0.000000e+000  0.000000e+000  9.999999e-001
    outer loop
      vertex -1.300000e+001 -1.000000e+001  5.000000e+000
      vertex -1.040451e+001  5.706107e+000  5.000000e+000
      vertex -1.050000e+001  6.000000e+000  5.000000e+000
    endloop
  endfacet
  facet normal  0.000000e+000  0.000000e+000  1.000000e+000
    outer loop
      vertex -1.300000e+001  1.000000e+001  5.000000e+000
      vertex -1.300000e+001 -1.000000e+001  5.000000e+000
      vertex -1.050000e+001  6.000000e+000  5.000000e+000
    endloop
  endfacet
  facet normal  0.000000e+000  -0.000000e+000  1.000000e+000
    outer loop
      vertex -1.300000e+001  1.000000e+001  5.000000e+000
      vertex -1.050000e+001  6.000000e+000  5.000000e+000
      vertex -1.040451e+001  6.293893e+000  5.000000e+000
    endloop
  endfacet
  facet normal  0.000000e+000  -0.000000e+000  1.000000e+000
    outer loop
      vertex -1.300000e+001  1.000000e+001  5.000000e+000
      vertex -1.040451e+001  6.293893e+000  5.000000e+000
      vertex -1.015451e+001  6.475528e+000  5.000000e+000
    endloop
  endfacet
  facet normal  0.000000e+000  -0.000000e+000  1.000000e+000
    outer loop
      vertex -1.300000e+001  1.000000e+001  5.000000e+000
      vertex -1.015451e+001  6.475528e+000  5.000000e+000
      vertex -9.845491e+000  6.475528e+000  5.000000e+000
    endloop
  endfacet
  facet normal  0.000000e+000  -0.000000e+000  9.999999e-001
    outer loop
      vertex -1.300000e+001  1.000000e+001  5.000000e+000
      vertex -9.845491e+000  6.475528e+000  5.000000e+000
      vertex -7.000000e+000  1.000000e+001  5.000000e+000
    endloop
  endfacet
  facet normal  0.000000e+000  0.000000e+000  1.000000e+000
    outer loop
      vertex  7.000000e+000  1.000000e+001  5.000000e+000
      vertex  7.000000e+000 -5.000000e+000  5.000000e+000
      vertex  9.500000e+000  6.000000e+000  5.000000e+000
    endloop
  endfacet
  facet normal  0.000000e+000  -0.000000e+000  1.000000e+000
    outer loop
      vertex  7.000000e+000  1.000000e+001  5.000000e+000
      vertex  9.500000e+000  6.000000e+000  5.000000e+000
      vertex  9.595491e+000  6.293893e+000  5.000000e+000
    endloop
  endfacet
  facet normal  0.000000e+000  -0.000000e+000  1.000000e+000
    outer loop
      vertex  7.000000e+000  1.000000e+001  5.000000e+000
      vertex  9.595491e+000  6.293893e+000  5.000000e+000
      vertex  9.845491e+000  6.475528e+000  5.000000e+000
    endloop
  endfacet
  facet normal  0.000000e+000  -0.000000e+000  1.000000e+000
    outer loop
      vertex  7.000000e+000  1.000000e+001  5.000000e+000
      vertex  9.845491e+000  6.475528e+000  5.000000e+000
      vertex  1.015451e+001  6.475528e+000  5.000000e+000
    endloop
  endfacet
  facet normal  0.000000e+000  -0.000000e+000  9.999999e-001
    outer loop
      vertex  7.000000e+000  1.000000e+001  5.000000e+000
      vertex  1.015451e+001  6.475528e+000  5.000000e+000
      vertex  1.300000e+001  1.000000e+001  5.000000e+000
    endloop
  endfacet
  facet normal  -0.000000e+000  0.000000e+000  1.000000e+000
    outer loop
      vertex -7.000000e+000  1.000000e+001  5.000000e+000
      vertex -9.845491e+000  6.475528e+000  5.000000e+000
      vertex -9.595491e+000  6.293893e+000  5.000000e+000
    endloop
  endfacet
  facet normal  -0.000000e+000  0.000000e+000  1.000000e+000
    outer loop
      vertex -7.000000e+000  1.000000e+001  5.000000e+000
      vertex -9.595491e+000  6.293893e+000  5.000000e+000
      vertex -9.500000e+000  6.000000e+000  5.000000e+000
    endloop
  endfacet
  facet normal  -0.000000e+000  0.000000e+000  1.000000e+000
    outer loop
      vertex -7.000000e+000  1.000000e+001  5.000000e+000
      vertex -9.500000e+000  6.000000e+000  5.000000e+000
      vertex -7.000000e+000 -5.000000e+000  5.000000e+000
    endloop
  endfacet
  facet normal  -0.000000e+000  0.000000e+000  1.000000e+000
    outer loop
      vertex  1.300000e+001  1.000000e+001  5.000000e+000
      vertex  1.015451e+001  6.475528e+000  5.000000e+000
      vertex  1.040451e+001  6.293893e+000  5.000000e+000
    endloop
  endfacet
  facet normal  -0.000000e+000  0.000000e+000  1.000000e+000
    outer loop
      vertex  1.300000e+001  1.000000e+001  5.000000e+000
      vertex  1.040451e+001  6.293893e+000  5.000000e+000
      vertex  1.050000e+001  6.000000e+000  5.000000e+000
    endloop
  endfacet
  facet normal  -0.000000e+000  0.000000e+000  1.000000e+000
    outer loop
      vertex  1.300000e+001  1.000000e+001  5.000000e+000
      vertex  1.050000e+001  6.000000e+000  5.000000e+000
      vertex  1.300000e+001 -1.000000e+001  5.000000e+000
    endloop
  endfacet
  facet normal  5.877847e-001 -8.090174e-001  0.000000e+000
    outer loop
      vertex  9.845491e+000  6.475528e+000  0.000000e+000
      vertex  9.595491e+000  6.293893e+000  5.000000e+000
      vertex  9.595491e+000  6.293893e+000  0.000000e+000
    endloop
  endfacet
  facet normal  9.510567e-001 -3.090165e-001  0.000000e+000
    outer loop
      vertex  9.595491e+000  6.293893e+000  0.000000e+000
      vertex  9.595491e+000  6.293893e+000  5.000000e+000
      vertex  9.500000e+000  6.000000e+000  5.000000e+000
    endloop
  endfacet
  facet normal  9.510567e-001 -3.090165e-001  0.000000e+000
    outer loop
      vertex  9.595491e+000  6.293893e+000  0.000000e+000
      vertex  9.500000e+000  6.000000e+000  5.000000e+000
      vertex  9.500000e+000  6.000000e+000  0.000000e+000
    endloop
  endfacet
  facet normal  5.877847e-001 -8.090174e-001  0.000000e+000
    outer loop
      vertex  9.595491e+000  6.293893e+000  5.000000e+000
      vertex  9.845491e+000  6.475528e+000  0.000000e+000
      vertex  9.845491e+000  6.475528e+000  5.000000e+000
    endloop
  endfacet
  facet normal  0.000000e+000 -1.000000e+000  0.000000e+000
    outer loop
      vertex  9.845491e+000  6.475528e+000  5.000000e+000
      vertex  9.845491e+000  6.475528e+000  0.000000e+000
      vertex  1.015451e+001  6.475528e+000  0.000000e+000
    endloop
  endfacet
  facet normal  0.000000e+000 -1.000000e+000  0.000000e+000
    outer loop
      vertex  9.845491e+000  6.475528e+000  5.000000e+000
      vertex  1.015451e+001  6.475528e+000  0.000000e+000
      vertex  1.015451e+001  6.475528e+000  5.000000e+000
    endloop
  endfacet
  facet normal -5.877847e-001 -8.090174e-001  -0.000000e+000
    outer loop
      vertex  1.015451e+001  6.475528e+000  5.000000e+000
      vertex  1.015451e+001  6.475528e+000  0.000000e+000
      vertex  1.040451e+001  6.293893e+000  0.000000e+000
    endloop
  endfacet
  facet normal -5.877847e-001 -8.090174e-001  0.000000e+000
    outer loop
      vertex  1.015451e+001  6.475528e+000  5.000000e+000
      vertex  1.040451e+001  6.293893e+000  0.000000e+000
      vertex  1.040451e+001  6.293893e+000  5.000000e+000
    endloop
  endfacet
  facet normal -9.510567e-001 -3.090165e-001  -0.000000e+000
    outer loop
      vertex  1.040451e+001  6.293893e+000  5.000000e+000
      vertex  1.040451e+001  6.293893e+000  0.000000e+000
      vertex  1.050000e+001  6.000000e+000  0.000000e+000
    endloop
  endfacet
  facet normal -9.510567e-001 -3.090165e-001  0.000000e+000
    outer loop
      vertex  1.040451e+001  6.293893e+000  5.000000e+000
      vertex  1.050000e+001  6.000000e+000  0.000000e+000
      vertex  1.050000e+001  6.000000e+000  5.000000e+000
    endloop
  endfacet
  facet normal -5.877847e-001  8.090174e-001  0.000000e+000
    outer loop
      vertex  1.015451e+001  5.524472e+000  0.000000e+000
      vertex  1.040451e+001  5.706107e+000  5.000000e+000
      vertex  1.040451e+001  5.706107e+000  0.000000e+000
    endloop
  endfacet
  facet normal -9.510567e-001  3.090165e-001  0.000000e+000
    outer loop
      vertex  1.040451e+001  5.706107e+000  0.000000e+000
      vertex  1.040451e+001  5.706107e+000  5.000000e+000
      vertex  1.050000e+001  6.000000e+000  5.000000e+000
    endloop
  endfacet
  facet normal -9.510567e-001  3.090165e-001  0.000000e+000
    outer loop
      vertex  1.040451e+001  5.706107e+000  0.000000e+000
      vertex  1.050000e+001  6.000000e+000  5.000000e+000
      vertex  1.050000e+001  6.000000e+000  0.000000e+000
    endloop
  endfacet
  facet normal -5.877847e-001  8.090174e-001  0.000000e+000
    outer loop
      vertex  1.040451e+001  5.706107e+000  5.000000e+000
      vertex  1.015451e+001  5.524472e+000  0.000000e+000
      vertex  1.015451e+001  5.524472e+000  5.000000e+000
    endloop
  endfacet
  facet normal  0.000000e+000  1.000000e+000  0.000000e+000
    outer loop
      vertex  1.015451e+001  5.524472e+000  5.000000e+000
      vertex  1.015451e+001  5.524472e+000  0.000000e+000
      vertex  9.845491e+000  5.524472e+000  0.000000e+000
    endloop
  endfacet
  facet normal  0.000000e+000  1.000000e+000  0.000000e+000
    outer loop
      vertex  1.015451e+001  5.524472e+000  5.000000e+000
      vertex  9.845491e+000  5.524472e+000  0.000000e+000
      vertex  9.845491e+000  5.524472e+000  5.000000e+000
    endloop
  endfacet
  facet normal  5.877847e-001  8.090174e-001  0.000000e+000
    outer loop
      vertex  9.845491e+000  5.524472e+000  5.000000e+000
      vertex  9.845491e+000  5.524472e+000  0.000000e+000
      vertex  9.595491e+000  5.706107e+000  0.000000e+000
    endloop
  endfacet
  facet normal  5.877847e-001  8.090174e-001  -0.000000e+000
    outer loop
      vertex  9.845491e+000  5.524472e+000  5.000000e+000
      vertex  9.595491e+000  5.706107e+000  0.000000e+000
      vertex  9.595491e+000  5.706107e+000  5.000000e+000
    endloop
  endfacet
  facet normal  9.510567e-001  3.090165e-001  0.000000e+000
    outer loop
      vertex  9.595491e+000  5.706107e+000  5.000000e+000
      vertex  9.595491e+000  5.706107e+000  0.000000e+000
      vertex  9.500000e+000  6.000000e+000  0.000000e+000
    endloop
  endfacet
  facet normal  9.510567e-001  3.090165e-001  -0.000000e+000
    outer loop
      vertex  9.595491e+000  5.706107e+000  5.000000e+000
      vertex  9.500000e+000  6.000000e+000  0.000000e+000
      vertex  9.500000e+000  6.000000e+000  5.000000e+000
    endloop
  endfacet
  facet normal  5.877847e-001 -8.090174e-001  0.000000e+000
    outer loop
      vertex -1.015451e+001  6.475528e+000  0.000000e+000
      vertex -1.040451e+001  6.293893e+000  5.000000e+000
      vertex -1.040451e+001  6.293893e+000  0.000000e+000
    endloop
  endfacet
  facet normal  9.510567e-001 -3.090165e-001  0.000000e+000
    outer loop
      vertex -1.040451e+001  6.293893e+000  0.000000e+000
      vertex -1.040451e+001  6.293893e+000  5.000000e+000
      vertex -1.050000e+001  6.000000e+000  5.000000e+000
    endloop
  endfacet
  facet normal  9.510567e-001 -3.090165e-001  0.000000e+000
    outer loop
      vertex -1.040451e+001  6.293893e+000  0.000000e+000
      vertex -1.050000e+001  6.000000e+000  5.000000e+000
      vertex -1.050000e+001  6.000000e+000  0.000000e+000
    endloop
  endfacet
  facet normal  5.877847e-001 -8.090174e-001  0.000000e+000
    outer loop
      vertex -1.040451e+001  6.293893e+000  5.000000e+000
      vertex -1.015451e+001  6.475528e+000  0.000000e+000
      vertex -1.015451e+001  6.475528e+000  5.000000e+000
    endloop
  endfacet
  facet normal  0.000000e+000 -1.000000e+000  0.000000e+000
    outer loop
      vertex -1.015451e+001  6.475528e+000  5.000000e+000
      vertex -1.015451e+001  6.475528e+000  0.000000e+000
      vertex -9.845491e+000  6.475528e+000  0.000000e+000
    endloop
  endfacet
  facet normal  0.000000e+000 -1.000000e+000  0.000000e+000
    outer loop
      vertex -1.015451e+001  6.475528e+000  5.000000e+000
      vertex -9.845491e+000  6.475528e+000  0.000000e+000
      vertex -9.845491e+000  6.475528e+000  5.000000e+000
    endloop
  endfacet
  facet normal -5.877847e-001 -8.090174e-001  -0.000000e+000
    outer loop
      vertex -9.845491e+000  6.475528e+000  5.000000e+000
      vertex -9.845491e+000  6.475528e+000  0.000000e+000
      vertex -9.595491e+000  6.293893e+000  0.000000e+000
    endloop
  endfacet
  facet normal -5.877847e-001 -8.090174e-001  0.000000e+000
    outer loop
      vertex -9.845491e+000  6.475528e+000  5.000000e+000
      vertex -9.595491e+000  6.293893e+000  0.000000e+000
      vertex -9.595491e+000  6.293893e+000  5.000000e+000
    endloop
  endfacet
  facet normal -9.510567e-001 -3.090165e-001  -0.000000e+000
    outer loop
      vertex -9.595491e+000  6.293893e+000  5.000000e+000
      vertex -9.595491e+000  6.293893e+000  0.000000e+000
      vertex -9.500000e+000  6.000000e+000  0.000000e+000
    endloop
  endfacet
  facet normal -9.510567e-001 -3.090165e-001  0.000000e+000
    outer loop
      vertex -9.595491e+000  6.293893e+000  5.000000e+000
      vertex -9.500000e+000  6.000000e+000  0.000000e+000
      vertex -9.500000e+000  6.000000e+000  5.000000e+000
    endloop
  endfacet
  facet normal -5.877847e-001  8.090174e-001  0.000000e+000
    outer loop
      vertex -9.845491e+000  5.524472e+000  0.000000e+000
      vertex -9.595491e+000  5.706107e+000  5.000000e+000
      vertex -9.595491e+000  5.706107e+000  0.000000e+000
    endloop
  endfacet
  facet normal -9.510567e-001  3.090165e-001  0.000000e+000
    outer loop
      vertex -9.595491e+000  5.706107e+000  0.000000e+000
      vertex -9.595491e+000  5.706107e+000  5.000000e+000
      vertex -9.500000e+000  6.000000e+000  5.000000e+000
    endloop
  endfacet
  facet normal -9.510567e-001  3.090165e-001  0.000000e+000
    outer loop
      vertex -9.595491e+000  5.706107e+000  0.000000e+000
      vertex -9.500000e+000  6.000000e+000  5.000000e+000
      vertex -9.500000e+000  6.000000e+000  0.000000e+000
    endloop
  endfacet
  facet normal -5.877847e-001  8.090174e-001  0.000000e+000
    outer loop
      vertex -9.595491e+000  5.706107e+000  5.000000e+000
      vertex -9.845491e+000  5.524472e+000  0.000000e+000
      vertex -9.845491e+000  5.524472e+000  5.000000e+000
    endloop
  endfacet
  facet normal  0.000000e+000  1.000000e+000  0.000000e+000
    outer loop
      vertex -9.845491e+000  5.524472e+000  5.000000e+000
      vertex -9.845491e+000  5.524472e+000  0.000000e+000
      vertex -1.015451e+001  5.524472e+000  0.000000e+000
    endloop
  endfacet
  facet normal  0.000000e+000  1.000000e+000  0.000000e+000
    outer loop
      vertex -9.845491e+000  5.524472e+000  5.000000e+000
      vertex -1.015451e+001  5.524472e+000  0.000000e+000
      vertex -1.015451e+001  5.524472e+000  5.000000e+000
    endloop
  endfacet
  facet normal  5.877847e-001  8.090174e-001  0.000000e+000
    outer loop
      vertex -1.015451e+001  5.524472e+000  5.000000e+000
      vertex -1.015451e+001  5.524472e+000  0.000000e+000
      vertex -1.040451e+001  5.706107e+000  0.000000e+000
    endloop
  endfacet
  facet normal  5.877847e-001  8.090174e-001  -0.000000e+000
    outer loop
      vertex -1.015451e+001  5.524472e+000  5.000000e+000
      vertex -1.040451e+001  5.706107e+000  0.000000e+000
      vertex -1.040451e+001  5.706107e+000  5.000000e+000
    endloop
  endfacet
  facet normal  9.510567e-001  3.090165e-001  0.000000e+000
    outer loop
      vertex -1.040451e+001  5.706107e+000  5.000000e+000
      vertex -1.040451e+001  5.706107e+000  0.000000e+000
      vertex -1.050000e+001  6.000000e+000  0.000000e+000
    endloop
  endfacet
  facet normal  9.510567e-001  3.090165e-001  -0.000000e+000
    outer loop
      vertex -1.040451e+001  5.706107e+000  5.000000e+000
      vertex -1.050000e+001  6.000000e+000  0.000000e+000
      vertex -1.050000e+001  6.000000e+000  5.000000e+000
    endloop
  endfacet
  facet normal  -0.000000e+000  0.000000e+000 -1.000000e+000
    outer loop
      vertex -1.300000e+001 -5.000000e+000 -1.000000e+001
      vertex  1.300000e+001 -5.000000e+000 -1.000000e+001
      vertex -1.300000e+001 -1.000000e+001 -1.000000e+001
    endloop
  endfacet
  facet normal  0.000000e+000  0.000000e+000 -1.000000e+000
    outer loop
      vertex -1.300000e+001 -1.000000e+001 -1.000000e+001
      vertex  1.300000e+001 -5.000000e+000 -1.000000e+001
      vertex  1.300000e+001 -1.000000e+001 -1.000000e+001
    endloop
  endfacet
  facet normal -1.000000e+000  0.000000e+000  0.000000e+000
    outer loop
      vertex -1.300000e+001  1.000000e+001  0.000000e+000
      vertex -1.300000e+001 -5.000000e+000  0.000000e+000
      vertex -1.300000e+001  1.000000e+001  5.000000e+000
    endloop
  endfacet
  facet normal -1.000000e+000  -0.000000e+000  0.000000e+000
    outer loop
      vertex -1.300000e+001  1.000000e+001  5.000000e+000
      vertex -1.300000e+001 -5.000000e+000  0.000000e+000
      vertex -1.300000e+001 -1.000000e+001  5.000000e+000
    endloop
  endfacet
  facet normal -1.000000e+000  0.000000e+000  0.000000e+000
    outer loop
      vertex -1.300000e+001 -5.000000e+000  0.000000e+000
      vertex -1.300000e+001 -5.000000e+000 -1.000000e+001
      vertex -1.300000e+001 -1.000000e+001  5.000000e+000
    endloop
  endfacet
  facet normal -1.000000e+000  0.000000e+000  0.000000e+000
    outer loop
      vertex -1.300000e+001 -1.000000e+001  5.000000e+000
      vertex -1.300000e+001 -5.000000e+000 -1.000000e+001
      vertex -1.300000e+001 -1.000000e+001 -1.000000e+001
    endloop
  endfacet
  facet normal  0.000000e+000 -1.000000e+000  0.000000e+000
    outer loop
      vertex  1.300000e+001 -1.000000e+001  5.000000e+000
      vertex -1.300000e+001 -1.000000e+001  5.000000e+000
      vertex  1.300000e+001 -1.000000e+001 -1.000000e+001
    endloop
  endfacet
  facet normal  0.000000e+000 -1.000000e+000  0.000000e+000
    outer loop
      vertex  1.300000e+001 -1.000000e+001 -1.000000e+001
      vertex -1.300000e+001 -1.000000e+001  5.000000e+000
      vertex -1.300000e+001 -1.000000e+001 -1.000000e+001
    endloop
  endfacet
  facet normal  -0.000000e+000  1.000000e+000  0.000000e+000
    outer loop
      vertex -7.000000e+000 -5.000000e+000  0.000000e+000
      vertex -7.000000e+000 -5.000000e+000  5.000000e+000
      vertex  7.000000e+000 -5.000000e+000  5.000000e+000
    endloop
  endfacet
  facet normal  0.000000e+000  1.000000e+000  0.000000e+000
    outer loop
      vertex -7.000000e+000 -5.000000e+000  0.000000e+000
      vertex  7.000000e+000 -5.000000e+000  5.000000e+000
      vertex  7.000000e+000 -5.000000e+000  0.000000e+000
    endloop
  endfacet
  facet normal  0.000000e+000  1.000000e+000  0.000000e+000
    outer loop
      vertex -7.000000e+000 -5.000000e+000  0.000000e+000
      vertex  7.000000e+000 -5.000000e+000  0.000000e+000
      vertex -1.300000e+001 -5.000000e+000 -1.000000e+001
    endloop
  endfacet
  facet normal  0.000000e+000  1.000000e+000  0.000000e+000
    outer loop
      vertex -7.000000e+000 -5.000000e+000  0.000000e+000
      vertex -1.300000e+001 -5.000000e+000 -1.000000e+001
      vertex -1.300000e+001 -5.000000e+000  0.000000e+000
    endloop
  endfacet
  facet normal  0.000000e+000  1.000000e+000  0.000000e+000
    outer loop
      vertex  7.000000e+000 -5.000000e+000  0.000000e+000
      vertex  1.300000e+001 -5.000000e+000  0.000000e+000
      vertex -1.300000e+001 -5.000000e+000 -1.000000e+001
    endloop
  endfacet
  facet normal  0.000000e+000  1.000000e+000  0.000000e+000
    outer loop
      vertex -1.300000e+001 -5.000000e+000 -1.000000e+001
      vertex  1.300000e+001 -5.000000e+000  0.000000e+000
      vertex  1.300000e+001 -5.000000e+000 -1.000000e+001
    endloop
  endfacet
  facet normal  1.000000e+000  -0.000000e+000  0.000000e+000
    outer loop
      vertex  1.300000e+001  1.000000e+001  5.000000e+000
      vertex  1.300000e+001 -1.000000e+001  5.000000e+000
      vertex  1.300000e+001  1.000000e+001  0.000000e+000
    endloop
  endfacet
  facet normal  1.000000e+000  0.000000e+000  0.000000e+000
    outer loop
      vertex  1.300000e+001  1.000000e+001  0.000000e+000
      vertex  1.300000e+001 -1.000000e+001  5.000000e+000
      vertex  1.300000e+001 -5.000000e+000  0.000000e+000
    endloop
  endfacet
  facet normal  1.000000e+000  0.000000e+000  0.000000e+000
    outer loop
      vertex  1.300000e+001 -1.000000e+001  5.000000e+000
      vertex  1.300000e+001 -1.000000e+001 -1.000000e+001
      vertex  1.300000e+001 -5.000000e+000  0.000000e+000
    endloop
  endfacet
  facet normal  1.000000e+000  0.000000e+000  0.000000e+000
    outer loop
      vertex  1.300000e+001 -5.000000e+000  0.000000e+000
      vertex  1.300000e+001 -1.000000e+001 -1.000000e+001
      vertex  1.300000e+001 -5.000000e+000 -1.000000e+001
    endloop
  endfacet
  facet normal  1.000000e+000  -0.000000e+000  0.000000e+000
    outer loop
      vertex -7.000000e+000  1.000000e+001  5.000000e+000
      vertex -7.000000e+000 -5.000000e+000  5.000000e+000
      vertex -7.000000e+000  1.000000e+001  0.000000e+000
    endloop
  endfacet
  facet normal  1.000000e+000  0.000000e+000  0.000000e+000
    outer loop
      vertex -7.000000e+000  1.000000e+001  0.000000e+000
      vertex -7.000000e+000 -5.000000e+000  5.000000e+000
      vertex -7.000000e+000 -5.000000e+000  0.000000e+000
    endloop
  endfacet
  facet normal -1.000000e+000  -0.000000e+000  0.000000e+000
    outer loop
      vertex  7.000000e+000 -5.000000e+000  5.000000e+000
      vertex  7.000000e+000  1.000000e+001  5.000000e+000
      vertex  7.000000e+000 -5.000000e+000  0.000000e+000
    endloop
  endfacet
  facet normal -1.000000e+000  0.000000e+000  0.000000e+000
    outer loop
      vertex  7.000000e+000 -5.000000e+000  0.000000e+000
      vertex  7.000000e+000  1.000000e+001  5.000000e+000
      vertex  7.000000e+000  1.000000e+001  0.000000e+000
    endloop
  endfacet
  facet normal  0.000000e+000  1.000000e+000  0.000000e+000
    outer loop
      vertex -1.300000e+001  1.000000e+001  5.000000e+000
      vertex -7.000000e+000  1.000000e+001  5.000000e+000
      vertex -1.300000e+001  1.000000e+001  0.000000e+000
    endloop
  endfacet
  facet normal  0.000000e+000  1.000000e+000  0.000000e+000
    outer loop
      vertex -1.300000e+001  1.000000e+001  0.000000e+000
      vertex -7.000000e+000  1.000000e+001  5.000000e+000
      vertex -7.000000e+000  1.000000e+001  0.000000e+000
    endloop
  endfacet
  facet normal  0.000000e+000  1.000000e+000  0.000000e+000
    outer loop
      vertex  7.000000e+000  1.000000e+001  5.000000e+000
      vertex  1.300000e+001  1.000000e+001  5.000000e+000
      vertex  7.000000e+000  1.000000e+001  0.000000e+000
    endloop
  endfacet
  facet normal  0.000000e+000  1.000000e+000  0.000000e+000
    outer loop
      vertex  7.000000e+000  1.000000e+001  0.000000e+000
      vertex  1.300000e+001  1.000000e+001  5.000000e+000
      vertex  1.300000e+001  1.000000e+001  0.000000e+000
    endloop
  endfacet
endsolid CATIA STL
