solid CATIA STL
  facet normal  0.000000e+000  -0.000000e+000 -1.000000e+000
    outer loop
      vertex  4.000000e+001 -7.000000e+000  0.000000e+000
      vertex  4.035355e+001 -6.853553e+000  0.000000e+000
      vertex  4.250000e+001 -1.850000e+001  0.000000e+000
    endloop
  endfacet
  facet normal  0.000000e+000  -0.000000e+000 -1.000000e+000
    outer loop
      vertex  4.035355e+001 -6.853553e+000  0.000000e+000
      vertex  4.050000e+001 -6.500000e+000  0.000000e+000
      vertex  4.250000e+001 -1.850000e+001  0.000000e+000
    endloop
  endfacet
  facet normal  0.000000e+000  -0.000000e+000 -1.000000e+000
    outer loop
      vertex  3.750000e+001 -1.850000e+001  0.000000e+000
      vertex  3.950000e+001 -6.500000e+000  0.000000e+000
      vertex  3.964645e+001 -6.853553e+000  0.000000e+000
    endloop
  endfacet
  facet normal  0.000000e+000  -0.000000e+000 -1.000000e+000
    outer loop
      vertex  3.750000e+001 -1.850000e+001  0.000000e+000
      vertex  3.964645e+001 -6.853553e+000  0.000000e+000
      vertex  4.000000e+001 -7.000000e+000  0.000000e+000
    endloop
  endfacet
  facet normal  0.000000e+000  -0.000000e+000 -9.999999e-001
    outer loop
      vertex  3.750000e+001 -1.850000e+001  0.000000e+000
      vertex  4.000000e+001 -7.000000e+000  0.000000e+000
      vertex  4.250000e+001 -1.850000e+001  0.000000e+000
    endloop
  endfacet
  facet normal  -0.000000e+000  0.000000e+000 -1.000000e+000
    outer loop
      vertex  3.750000e+001  2.350000e+001  0.000000e+000
      vertex  4.250000e+001  2.350000e+001  0.000000e+000
      vertex  4.000000e+001 -6.000000e+000  0.000000e+000
    endloop
  endfacet
  facet normal  -0.000000e+000  0.000000e+000 -1.000000e+000
    outer loop
      vertex  3.750000e+001  2.350000e+001  0.000000e+000
      vertex  4.000000e+001 -6.000000e+000  0.000000e+000
      vertex  3.964645e+001 -6.146447e+000  0.000000e+000
    endloop
  endfacet
  facet normal  -0.000000e+000  0.000000e+000 -1.000000e+000
    outer loop
      vertex  3.750000e+001  2.350000e+001  0.000000e+000
      vertex  3.964645e+001 -6.146447e+000  0.000000e+000
      vertex  3.950000e+001 -6.500000e+000  0.000000e+000
    endloop
  endfacet
  facet normal  -0.000000e+000  0.000000e+000 -1.000000e+000
    outer loop
      vertex  3.750000e+001  2.350000e+001  0.000000e+000
      vertex  3.950000e+001 -6.500000e+000  0.000000e+000
      vertex  3.750000e+001 -1.850000e+001  0.000000e+000
    endloop
  endfacet
  facet normal  0.000000e+000  0.000000e+000 -1.000000e+000
    outer loop
      vertex  4.250000e+001  2.350000e+001  0.000000e+000
      vertex  4.250000e+001 -1.850000e+001  0.000000e+000
      vertex  4.050000e+001 -6.500000e+000  0.000000e+000
    endloop
  endfacet
  facet normal  0.000000e+000  0.000000e+000 -1.000000e+000
    outer loop
      vertex  4.250000e+001  2.350000e+001  0.000000e+000
      vertex  4.050000e+001 -6.500000e+000  0.000000e+000
      vertex  4.035355e+001 -6.146447e+000  0.000000e+000
    endloop
  endfacet
  facet normal  0.000000e+000  0.000000e+000 -1.000000e+000
    outer loop
      vertex  4.250000e+001  2.350000e+001  0.000000e+000
      vertex  4.035355e+001 -6.146447e+000  0.000000e+000
      vertex  4.000000e+001 -6.000000e+000  0.000000e+000
    endloop
  endfacet
  facet normal  0.000000e+000  -0.000000e+000 -1.000000e+000
    outer loop
      vertex -4.000000e+001  1.300000e+001  0.000000e+000
      vertex -3.964645e+001  1.314645e+001  0.000000e+000
      vertex -3.750000e+001 -1.850000e+001  0.000000e+000
    endloop
  endfacet
  facet normal  0.000000e+000  -0.000000e+000 -1.000000e+000
    outer loop
      vertex -3.964645e+001  1.314645e+001  0.000000e+000
      vertex -3.950000e+001  1.350000e+001  0.000000e+000
      vertex -3.750000e+001 -1.850000e+001  0.000000e+000
    endloop
  endfacet
  facet normal  0.000000e+000  0.000000e+000 -1.000000e+000
    outer loop
      vertex -4.250000e+001 -1.850000e+001  0.000000e+000
      vertex -4.250000e+001  2.350000e+001  0.000000e+000
      vertex -4.050000e+001  1.350000e+001  0.000000e+000
    endloop
  endfacet
  facet normal  0.000000e+000  -0.000000e+000 -1.000000e+000
    outer loop
      vertex -4.250000e+001 -1.850000e+001  0.000000e+000
      vertex -4.050000e+001  1.350000e+001  0.000000e+000
      vertex -4.035355e+001  1.314645e+001  0.000000e+000
    endloop
  endfacet
  facet normal  0.000000e+000  -0.000000e+000 -1.000000e+000
    outer loop
      vertex -4.250000e+001 -1.850000e+001  0.000000e+000
      vertex -4.035355e+001  1.314645e+001  0.000000e+000
      vertex -4.000000e+001  1.300000e+001  0.000000e+000
    endloop
  endfacet
  facet normal  0.000000e+000  -0.000000e+000 -1.000000e+000
    outer loop
      vertex -4.250000e+001 -1.850000e+001  0.000000e+000
      vertex -4.000000e+001  1.300000e+001  0.000000e+000
      vertex -3.750000e+001 -1.850000e+001  0.000000e+000
    endloop
  endfacet
  facet normal  -0.000000e+000  0.000000e+000 -1.000000e+000
    outer loop
      vertex -4.250000e+001  2.350000e+001  0.000000e+000
      vertex -3.750000e+001  2.350000e+001  0.000000e+000
      vertex -4.000000e+001  1.400000e+001  0.000000e+000
    endloop
  endfacet
  facet normal  -0.000000e+000  0.000000e+000 -1.000000e+000
    outer loop
      vertex -4.250000e+001  2.350000e+001  0.000000e+000
      vertex -4.000000e+001  1.400000e+001  0.000000e+000
      vertex -4.035355e+001  1.385355e+001  0.000000e+000
    endloop
  endfacet
  facet normal  -0.000000e+000  0.000000e+000 -1.000000e+000
    outer loop
      vertex -4.250000e+001  2.350000e+001  0.000000e+000
      vertex -4.035355e+001  1.385355e+001  0.000000e+000
      vertex -4.050000e+001  1.350000e+001  0.000000e+000
    endloop
  endfacet
  facet normal  0.000000e+000  0.000000e+000 -1.000000e+000
    outer loop
      vertex -3.750000e+001  2.350000e+001  0.000000e+000
      vertex -3.750000e+001 -1.850000e+001  0.000000e+000
      vertex -3.950000e+001  1.350000e+001  0.000000e+000
    endloop
  endfacet
  facet normal  0.000000e+000  0.000000e+000 -1.000000e+000
    outer loop
      vertex -3.750000e+001  2.350000e+001  0.000000e+000
      vertex -3.950000e+001  1.350000e+001  0.000000e+000
      vertex -3.964645e+001  1.385355e+001  0.000000e+000
    endloop
  endfacet
  facet normal  0.000000e+000  0.000000e+000 -1.000000e+000
    outer loop
      vertex -3.750000e+001  2.350000e+001  0.000000e+000
      vertex -3.964645e+001  1.385355e+001  0.000000e+000
      vertex -4.000000e+001  1.400000e+001  0.000000e+000
    endloop
  endfacet
  facet normal  0.000000e+000  0.000000e+000  1.000000e+000
    outer loop
      vertex  4.250000e+001 -2.350000e+001  5.000000e+000
      vertex  4.035355e+001 -6.853553e+000  5.000000e+000
      vertex  4.000000e+001 -7.000000e+000  5.000000e+000
    endloop
  endfacet
  facet normal  0.000000e+000  0.000000e+000  9.999999e-001
    outer loop
      vertex  4.250000e+001 -2.350000e+001  5.000000e+000
      vertex  4.050000e+001 -6.500000e+000  5.000000e+000
      vertex  4.035355e+001 -6.853553e+000  5.000000e+000
    endloop
  endfacet
  facet normal  0.000000e+000  0.000000e+000  1.000000e+000
    outer loop
      vertex -4.250000e+001 -2.350000e+001  5.000000e+000
      vertex -4.000000e+001  1.300000e+001  5.000000e+000
      vertex -4.035355e+001  1.314645e+001  5.000000e+000
    endloop
  endfacet
  facet normal  0.000000e+000  0.000000e+000  1.000000e+000
    outer loop
      vertex -4.250000e+001 -2.350000e+001  5.000000e+000
      vertex -4.035355e+001  1.314645e+001  5.000000e+000
      vertex -4.050000e+001  1.350000e+001  5.000000e+000
    endloop
  endfacet
  facet normal  0.000000e+000  0.000000e+000  9.999999e-001
    outer loop
      vertex -4.250000e+001 -2.350000e+001  5.000000e+000
      vertex -4.050000e+001  1.350000e+001  5.000000e+000
      vertex -4.250000e+001  2.350000e+001  5.000000e+000
    endloop
  endfacet
  facet normal  0.000000e+000  0.000000e+000  1.000000e+000
    outer loop
      vertex -3.750000e+001 -1.850000e+001  5.000000e+000
      vertex -3.950000e+001  1.350000e+001  5.000000e+000
      vertex -3.964645e+001  1.314645e+001  5.000000e+000
    endloop
  endfacet
  facet normal  0.000000e+000  0.000000e+000  1.000000e+000
    outer loop
      vertex -3.750000e+001 -1.850000e+001  5.000000e+000
      vertex -3.964645e+001  1.314645e+001  5.000000e+000
      vertex -4.000000e+001  1.300000e+001  5.000000e+000
    endloop
  endfacet
  facet normal  0.000000e+000  0.000000e+000  1.000000e+000
    outer loop
      vertex -3.750000e+001 -1.850000e+001  5.000000e+000
      vertex -4.000000e+001  1.300000e+001  5.000000e+000
      vertex -4.250000e+001 -2.350000e+001  5.000000e+000
    endloop
  endfacet
  facet normal  0.000000e+000  0.000000e+000  9.999999e-001
    outer loop
      vertex -3.750000e+001 -1.850000e+001  5.000000e+000
      vertex -4.250000e+001 -2.350000e+001  5.000000e+000
      vertex  4.250000e+001 -2.350000e+001  5.000000e+000
    endloop
  endfacet
  facet normal  0.000000e+000  0.000000e+000  1.000000e+000
    outer loop
      vertex -3.750000e+001 -1.850000e+001  5.000000e+000
      vertex  4.250000e+001 -2.350000e+001  5.000000e+000
      vertex  3.750000e+001 -1.850000e+001  5.000000e+000
    endloop
  endfacet
  facet normal  0.000000e+000  0.000000e+000  1.000000e+000
    outer loop
      vertex  3.750000e+001 -1.850000e+001  5.000000e+000
      vertex  4.250000e+001 -2.350000e+001  5.000000e+000
      vertex  4.000000e+001 -7.000000e+000  5.000000e+000
    endloop
  endfacet
  facet normal  0.000000e+000  0.000000e+000  1.000000e+000
    outer loop
      vertex  3.750000e+001 -1.850000e+001  5.000000e+000
      vertex  4.000000e+001 -7.000000e+000  5.000000e+000
      vertex  3.964645e+001 -6.853553e+000  5.000000e+000
    endloop
  endfacet
  facet normal  0.000000e+000  0.000000e+000  1.000000e+000
    outer loop
      vertex  3.750000e+001 -1.850000e+001  5.000000e+000
      vertex  3.964645e+001 -6.853553e+000  5.000000e+000
      vertex  3.950000e+001 -6.500000e+000  5.000000e+000
    endloop
  endfacet
  facet normal  0.000000e+000  0.000000e+000  1.000000e+000
    outer loop
      vertex  3.750000e+001 -1.850000e+001  5.000000e+000
      vertex  3.950000e+001 -6.500000e+000  5.000000e+000
      vertex  3.750000e+001  2.350000e+001  5.000000e+000
    endloop
  endfacet
  facet normal  0.000000e+000  -0.000000e+000  1.000000e+000
    outer loop
      vertex  3.750000e+001  2.350000e+001  5.000000e+000
      vertex  3.950000e+001 -6.500000e+000  5.000000e+000
      vertex  3.964645e+001 -6.146447e+000  5.000000e+000
    endloop
  endfacet
  facet normal  0.000000e+000  -0.000000e+000  1.000000e+000
    outer loop
      vertex  3.750000e+001  2.350000e+001  5.000000e+000
      vertex  3.964645e+001 -6.146447e+000  5.000000e+000
      vertex  4.000000e+001 -6.000000e+000  5.000000e+000
    endloop
  endfacet
  facet normal  0.000000e+000  -0.000000e+000  1.000000e+000
    outer loop
      vertex  3.750000e+001  2.350000e+001  5.000000e+000
      vertex  4.000000e+001 -6.000000e+000  5.000000e+000
      vertex  4.250000e+001  2.350000e+001  5.000000e+000
    endloop
  endfacet
  facet normal  0.000000e+000  -0.000000e+000  1.000000e+000
    outer loop
      vertex -4.250000e+001  2.350000e+001  5.000000e+000
      vertex -4.050000e+001  1.350000e+001  5.000000e+000
      vertex -4.035355e+001  1.385355e+001  5.000000e+000
    endloop
  endfacet
  facet normal  0.000000e+000  -0.000000e+000  1.000000e+000
    outer loop
      vertex -4.250000e+001  2.350000e+001  5.000000e+000
      vertex -4.035355e+001  1.385355e+001  5.000000e+000
      vertex -4.000000e+001  1.400000e+001  5.000000e+000
    endloop
  endfacet
  facet normal  0.000000e+000  -0.000000e+000  1.000000e+000
    outer loop
      vertex -4.250000e+001  2.350000e+001  5.000000e+000
      vertex -4.000000e+001  1.400000e+001  5.000000e+000
      vertex -3.750000e+001  2.350000e+001  5.000000e+000
    endloop
  endfacet
  facet normal  -0.000000e+000  0.000000e+000  1.000000e+000
    outer loop
      vertex -3.750000e+001  2.350000e+001  5.000000e+000
      vertex -4.000000e+001  1.400000e+001  5.000000e+000
      vertex -3.964645e+001  1.385355e+001  5.000000e+000
    endloop
  endfacet
  facet normal  -0.000000e+000  0.000000e+000  1.000000e+000
    outer loop
      vertex -3.750000e+001  2.350000e+001  5.000000e+000
      vertex -3.964645e+001  1.385355e+001  5.000000e+000
      vertex -3.950000e+001  1.350000e+001  5.000000e+000
    endloop
  endfacet
  facet normal  -0.000000e+000  0.000000e+000  1.000000e+000
    outer loop
      vertex -3.750000e+001  2.350000e+001  5.000000e+000
      vertex -3.950000e+001  1.350000e+001  5.000000e+000
      vertex -3.750000e+001 -1.850000e+001  5.000000e+000
    endloop
  endfacet
  facet normal  -0.000000e+000  0.000000e+000  1.000000e+000
    outer loop
      vertex  4.250000e+001  2.350000e+001  5.000000e+000
      vertex  4.000000e+001 -6.000000e+000  5.000000e+000
      vertex  4.035355e+001 -6.146447e+000  5.000000e+000
    endloop
  endfacet
  facet normal  -0.000000e+000  0.000000e+000  1.000000e+000
    outer loop
      vertex  4.250000e+001  2.350000e+001  5.000000e+000
      vertex  4.035355e+001 -6.146447e+000  5.000000e+000
      vertex  4.050000e+001 -6.500000e+000  5.000000e+000
    endloop
  endfacet
  facet normal  -0.000000e+000  0.000000e+000  9.999999e-001
    outer loop
      vertex  4.250000e+001  2.350000e+001  5.000000e+000
      vertex  4.050000e+001 -6.500000e+000  5.000000e+000
      vertex  4.250000e+001 -2.350000e+001  5.000000e+000
    endloop
  endfacet
  facet normal  3.826833e-001 -9.238796e-001  0.000000e+000
    outer loop
      vertex  4.000000e+001 -6.000000e+000  0.000000e+000
      vertex  3.964645e+001 -6.146447e+000  5.000000e+000
      vertex  3.964645e+001 -6.146447e+000  0.000000e+000
    endloop
  endfacet
  facet normal  9.238799e-001 -3.826827e-001  0.000000e+000
    outer loop
      vertex  3.964645e+001 -6.146447e+000  0.000000e+000
      vertex  3.964645e+001 -6.146447e+000  5.000000e+000
      vertex  3.950000e+001 -6.500000e+000  5.000000e+000
    endloop
  endfacet
  facet normal  9.238799e-001 -3.826827e-001  0.000000e+000
    outer loop
      vertex  3.964645e+001 -6.146447e+000  0.000000e+000
      vertex  3.950000e+001 -6.500000e+000  5.000000e+000
      vertex  3.950000e+001 -6.500000e+000  0.000000e+000
    endloop
  endfacet
  facet normal  3.826833e-001 -9.238796e-001  0.000000e+000
    outer loop
      vertex  3.964645e+001 -6.146447e+000  5.000000e+000
      vertex  4.000000e+001 -6.000000e+000  0.000000e+000
      vertex  4.000000e+001 -6.000000e+000  5.000000e+000
    endloop
  endfacet
  facet normal -3.826833e-001 -9.238796e-001  -0.000000e+000
    outer loop
      vertex  4.000000e+001 -6.000000e+000  5.000000e+000
      vertex  4.000000e+001 -6.000000e+000  0.000000e+000
      vertex  4.035355e+001 -6.146447e+000  0.000000e+000
    endloop
  endfacet
  facet normal -3.826833e-001 -9.238796e-001  0.000000e+000
    outer loop
      vertex  4.000000e+001 -6.000000e+000  5.000000e+000
      vertex  4.035355e+001 -6.146447e+000  0.000000e+000
      vertex  4.035355e+001 -6.146447e+000  5.000000e+000
    endloop
  endfacet
  facet normal -9.238799e-001 -3.826827e-001  -0.000000e+000
    outer loop
      vertex  4.035355e+001 -6.146447e+000  5.000000e+000
      vertex  4.035355e+001 -6.146447e+000  0.000000e+000
      vertex  4.050000e+001 -6.500000e+000  0.000000e+000
    endloop
  endfacet
  facet normal -9.238799e-001 -3.826827e-001  0.000000e+000
    outer loop
      vertex  4.035355e+001 -6.146447e+000  5.000000e+000
      vertex  4.050000e+001 -6.500000e+000  0.000000e+000
      vertex  4.050000e+001 -6.500000e+000  5.000000e+000
    endloop
  endfacet
  facet normal -3.826833e-001  9.238796e-001  0.000000e+000
    outer loop
      vertex  4.000000e+001 -7.000000e+000  0.000000e+000
      vertex  4.035355e+001 -6.853553e+000  5.000000e+000
      vertex  4.035355e+001 -6.853553e+000  0.000000e+000
    endloop
  endfacet
  facet normal -9.238799e-001  3.826827e-001  0.000000e+000
    outer loop
      vertex  4.035355e+001 -6.853553e+000  0.000000e+000
      vertex  4.035355e+001 -6.853553e+000  5.000000e+000
      vertex  4.050000e+001 -6.500000e+000  5.000000e+000
    endloop
  endfacet
  facet normal -9.238799e-001  3.826827e-001  0.000000e+000
    outer loop
      vertex  4.035355e+001 -6.853553e+000  0.000000e+000
      vertex  4.050000e+001 -6.500000e+000  5.000000e+000
      vertex  4.050000e+001 -6.500000e+000  0.000000e+000
    endloop
  endfacet
  facet normal -3.826833e-001  9.238796e-001  0.000000e+000
    outer loop
      vertex  4.035355e+001 -6.853553e+000  5.000000e+000
      vertex  4.000000e+001 -7.000000e+000  0.000000e+000
      vertex  4.000000e+001 -7.000000e+000  5.000000e+000
    endloop
  endfacet
  facet normal  3.826833e-001  9.238796e-001  0.000000e+000
    outer loop
      vertex  4.000000e+001 -7.000000e+000  5.000000e+000
      vertex  4.000000e+001 -7.000000e+000  0.000000e+000
      vertex  3.964645e+001 -6.853553e+000  0.000000e+000
    endloop
  endfacet
  facet normal  3.826833e-001  9.238796e-001  -0.000000e+000
    outer loop
      vertex  4.000000e+001 -7.000000e+000  5.000000e+000
      vertex  3.964645e+001 -6.853553e+000  0.000000e+000
      vertex  3.964645e+001 -6.853553e+000  5.000000e+000
    endloop
  endfacet
  facet normal  9.238799e-001  3.826827e-001  0.000000e+000
    outer loop
      vertex  3.964645e+001 -6.853553e+000  5.000000e+000
      vertex  3.964645e+001 -6.853553e+000  0.000000e+000
      vertex  3.950000e+001 -6.500000e+000  0.000000e+000
    endloop
  endfacet
  facet normal  9.238799e-001  3.826827e-001  -0.000000e+000
    outer loop
      vertex  3.964645e+001 -6.853553e+000  5.000000e+000
      vertex  3.950000e+001 -6.500000e+000  0.000000e+000
      vertex  3.950000e+001 -6.500000e+000  5.000000e+000
    endloop
  endfacet
  facet normal  3.826822e-001 -9.238800e-001  0.000000e+000
    outer loop
      vertex -4.000000e+001  1.400000e+001  0.000000e+000
      vertex -4.035355e+001  1.385355e+001  5.000000e+000
      vertex -4.035355e+001  1.385355e+001  0.000000e+000
    endloop
  endfacet
  facet normal  9.238800e-001 -3.826822e-001  0.000000e+000
    outer loop
      vertex -4.035355e+001  1.385355e+001  0.000000e+000
      vertex -4.035355e+001  1.385355e+001  5.000000e+000
      vertex -4.050000e+001  1.350000e+001  5.000000e+000
    endloop
  endfacet
  facet normal  9.238800e-001 -3.826822e-001  0.000000e+000
    outer loop
      vertex -4.035355e+001  1.385355e+001  0.000000e+000
      vertex -4.050000e+001  1.350000e+001  5.000000e+000
      vertex -4.050000e+001  1.350000e+001  0.000000e+000
    endloop
  endfacet
  facet normal  3.826822e-001 -9.238800e-001  0.000000e+000
    outer loop
      vertex -4.035355e+001  1.385355e+001  5.000000e+000
      vertex -4.000000e+001  1.400000e+001  0.000000e+000
      vertex -4.000000e+001  1.400000e+001  5.000000e+000
    endloop
  endfacet
  facet normal -3.826822e-001 -9.238800e-001  -0.000000e+000
    outer loop
      vertex -4.000000e+001  1.400000e+001  5.000000e+000
      vertex -4.000000e+001  1.400000e+001  0.000000e+000
      vertex -3.964645e+001  1.385355e+001  0.000000e+000
    endloop
  endfacet
  facet normal -3.826822e-001 -9.238800e-001  0.000000e+000
    outer loop
      vertex -4.000000e+001  1.400000e+001  5.000000e+000
      vertex -3.964645e+001  1.385355e+001  0.000000e+000
      vertex -3.964645e+001  1.385355e+001  5.000000e+000
    endloop
  endfacet
  facet normal -9.238800e-001 -3.826822e-001  -0.000000e+000
    outer loop
      vertex -3.964645e+001  1.385355e+001  5.000000e+000
      vertex -3.964645e+001  1.385355e+001  0.000000e+000
      vertex -3.950000e+001  1.350000e+001  0.000000e+000
    endloop
  endfacet
  facet normal -9.238800e-001 -3.826822e-001  0.000000e+000
    outer loop
      vertex -3.964645e+001  1.385355e+001  5.000000e+000
      vertex -3.950000e+001  1.350000e+001  0.000000e+000
      vertex -3.950000e+001  1.350000e+001  5.000000e+000
    endloop
  endfacet
  facet normal -3.826822e-001  9.238800e-001  0.000000e+000
    outer loop
      vertex -4.000000e+001  1.300000e+001  0.000000e+000
      vertex -3.964645e+001  1.314645e+001  5.000000e+000
      vertex -3.964645e+001  1.314645e+001  0.000000e+000
    endloop
  endfacet
  facet normal -9.238800e-001  3.826822e-001  0.000000e+000
    outer loop
      vertex -3.964645e+001  1.314645e+001  0.000000e+000
      vertex -3.964645e+001  1.314645e+001  5.000000e+000
      vertex -3.950000e+001  1.350000e+001  5.000000e+000
    endloop
  endfacet
  facet normal -9.238800e-001  3.826822e-001  0.000000e+000
    outer loop
      vertex -3.964645e+001  1.314645e+001  0.000000e+000
      vertex -3.950000e+001  1.350000e+001  5.000000e+000
      vertex -3.950000e+001  1.350000e+001  0.000000e+000
    endloop
  endfacet
  facet normal -3.826822e-001  9.238800e-001  0.000000e+000
    outer loop
      vertex -3.964645e+001  1.314645e+001  5.000000e+000
      vertex -4.000000e+001  1.300000e+001  0.000000e+000
      vertex -4.000000e+001  1.300000e+001  5.000000e+000
    endloop
  endfacet
  facet normal  3.826822e-001  9.238800e-001  0.000000e+000
    outer loop
      vertex -4.000000e+001  1.300000e+001  5.000000e+000
      vertex -4.000000e+001  1.300000e+001  0.000000e+000
      vertex -4.035355e+001  1.314645e+001  0.000000e+000
    endloop
  endfacet
  facet normal  3.826822e-001  9.238800e-001  -0.000000e+000
    outer loop
      vertex -4.000000e+001  1.300000e+001  5.000000e+000
      vertex -4.035355e+001  1.314645e+001  0.000000e+000
      vertex -4.035355e+001  1.314645e+001  5.000000e+000
    endloop
  endfacet
  facet normal  9.238800e-001  3.826822e-001  0.000000e+000
    outer loop
      vertex -4.035355e+001  1.314645e+001  5.000000e+000
      vertex -4.035355e+001  1.314645e+001  0.000000e+000
      vertex -4.050000e+001  1.350000e+001  0.000000e+000
    endloop
  endfacet
  facet normal  9.238800e-001  3.826822e-001  -0.000000e+000
    outer loop
      vertex -4.035355e+001  1.314645e+001  5.000000e+000
      vertex -4.050000e+001  1.350000e+001  0.000000e+000
      vertex -4.050000e+001  1.350000e+001  5.000000e+000
    endloop
  endfacet
  facet normal  -0.000000e+000  0.000000e+000 -9.999999e-001
    outer loop
      vertex -4.250000e+001 -1.850000e+001 -1.000000e+001
      vertex  4.250000e+001 -1.850000e+001 -1.000000e+001
      vertex -4.250000e+001 -2.350000e+001 -1.000000e+001
    endloop
  endfacet
  facet normal  0.000000e+000  0.000000e+000 -9.999999e-001
    outer loop
      vertex -4.250000e+001 -2.350000e+001 -1.000000e+001
      vertex  4.250000e+001 -1.850000e+001 -1.000000e+001
      vertex  4.250000e+001 -2.350000e+001 -1.000000e+001
    endloop
  endfacet
  facet normal -1.000000e+000  0.000000e+000  0.000000e+000
    outer loop
      vertex -4.250000e+001  2.350000e+001  0.000000e+000
      vertex -4.250000e+001 -1.850000e+001  0.000000e+000
      vertex -4.250000e+001  2.350000e+001  5.000000e+000
    endloop
  endfacet
  facet normal -9.999999e-001  -0.000000e+000  0.000000e+000
    outer loop
      vertex -4.250000e+001  2.350000e+001  5.000000e+000
      vertex -4.250000e+001 -1.850000e+001  0.000000e+000
      vertex -4.250000e+001 -2.350000e+001  5.000000e+000
    endloop
  endfacet
  facet normal -1.000000e+000  0.000000e+000  0.000000e+000
    outer loop
      vertex -4.250000e+001 -1.850000e+001  0.000000e+000
      vertex -4.250000e+001 -1.850000e+001 -1.000000e+001
      vertex -4.250000e+001 -2.350000e+001  5.000000e+000
    endloop
  endfacet
  facet normal -1.000000e+000  0.000000e+000  0.000000e+000
    outer loop
      vertex -4.250000e+001 -2.350000e+001  5.000000e+000
      vertex -4.250000e+001 -1.850000e+001 -1.000000e+001
      vertex -4.250000e+001 -2.350000e+001 -1.000000e+001
    endloop
  endfacet
  facet normal  0.000000e+000 -1.000000e+000  0.000000e+000
    outer loop
      vertex  4.250000e+001 -2.350000e+001  5.000000e+000
      vertex -4.250000e+001 -2.350000e+001  5.000000e+000
      vertex  4.250000e+001 -2.350000e+001 -1.000000e+001
    endloop
  endfacet
  facet normal  0.000000e+000 -1.000000e+000  0.000000e+000
    outer loop
      vertex  4.250000e+001 -2.350000e+001 -1.000000e+001
      vertex -4.250000e+001 -2.350000e+001  5.000000e+000
      vertex -4.250000e+001 -2.350000e+001 -1.000000e+001
    endloop
  endfacet
  facet normal  -0.000000e+000  1.000000e+000  0.000000e+000
    outer loop
      vertex -3.750000e+001 -1.850000e+001  0.000000e+000
      vertex -3.750000e+001 -1.850000e+001  5.000000e+000
      vertex  3.750000e+001 -1.850000e+001  5.000000e+000
    endloop
  endfacet
  facet normal  0.000000e+000  1.000000e+000  0.000000e+000
    outer loop
      vertex -3.750000e+001 -1.850000e+001  0.000000e+000
      vertex  3.750000e+001 -1.850000e+001  5.000000e+000
      vertex  3.750000e+001 -1.850000e+001  0.000000e+000
    endloop
  endfacet
  facet normal  0.000000e+000  1.000000e+000  0.000000e+000
    outer loop
      vertex -3.750000e+001 -1.850000e+001  0.000000e+000
      vertex  3.750000e+001 -1.850000e+001  0.000000e+000
      vertex -4.250000e+001 -1.850000e+001 -1.000000e+001
    endloop
  endfacet
  facet normal  0.000000e+000  1.000000e+000  0.000000e+000
    outer loop
      vertex -3.750000e+001 -1.850000e+001  0.000000e+000
      vertex -4.250000e+001 -1.850000e+001 -1.000000e+001
      vertex -4.250000e+001 -1.850000e+001  0.000000e+000
    endloop
  endfacet
  facet normal  0.000000e+000  1.000000e+000  0.000000e+000
    outer loop
      vertex  3.750000e+001 -1.850000e+001  0.000000e+000
      vertex  4.250000e+001 -1.850000e+001  0.000000e+000
      vertex -4.250000e+001 -1.850000e+001 -1.000000e+001
    endloop
  endfacet
  facet normal  0.000000e+000  9.999999e-001  0.000000e+000
    outer loop
      vertex -4.250000e+001 -1.850000e+001 -1.000000e+001
      vertex  4.250000e+001 -1.850000e+001  0.000000e+000
      vertex  4.250000e+001 -1.850000e+001 -1.000000e+001
    endloop
  endfacet
  facet normal  9.999999e-001  -0.000000e+000  0.000000e+000
    outer loop
      vertex  4.250000e+001  2.350000e+001  5.000000e+000
      vertex  4.250000e+001 -2.350000e+001  5.000000e+000
      vertex  4.250000e+001  2.350000e+001  0.000000e+000
    endloop
  endfacet
  facet normal  1.000000e+000  0.000000e+000  0.000000e+000
    outer loop
      vertex  4.250000e+001  2.350000e+001  0.000000e+000
      vertex  4.250000e+001 -2.350000e+001  5.000000e+000
      vertex  4.250000e+001 -1.850000e+001  0.000000e+000
    endloop
  endfacet
  facet normal  1.000000e+000  0.000000e+000  0.000000e+000
    outer loop
      vertex  4.250000e+001 -2.350000e+001  5.000000e+000
      vertex  4.250000e+001 -2.350000e+001 -1.000000e+001
      vertex  4.250000e+001 -1.850000e+001  0.000000e+000
    endloop
  endfacet
  facet normal  1.000000e+000  0.000000e+000  0.000000e+000
    outer loop
      vertex  4.250000e+001 -1.850000e+001  0.000000e+000
      vertex  4.250000e+001 -2.350000e+001 -1.000000e+001
      vertex  4.250000e+001 -1.850000e+001 -1.000000e+001
    endloop
  endfacet
  facet normal  1.000000e+000  -0.000000e+000  0.000000e+000
    outer loop
      vertex -3.750000e+001  2.350000e+001  5.000000e+000
      vertex -3.750000e+001 -1.850000e+001  5.000000e+000
      vertex -3.750000e+001  2.350000e+001  0.000000e+000
    endloop
  endfacet
  facet normal  1.000000e+000  0.000000e+000  0.000000e+000
    outer loop
      vertex -3.750000e+001  2.350000e+001  0.000000e+000
      vertex -3.750000e+001 -1.850000e+001  5.000000e+000
      vertex -3.750000e+001 -1.850000e+001  0.000000e+000
    endloop
  endfacet
  facet normal -1.000000e+000  -0.000000e+000  0.000000e+000
    outer loop
      vertex  3.750000e+001 -1.850000e+001  5.000000e+000
      vertex  3.750000e+001  2.350000e+001  5.000000e+000
      vertex  3.750000e+001 -1.850000e+001  0.000000e+000
    endloop
  endfacet
  facet normal -1.000000e+000  0.000000e+000  0.000000e+000
    outer loop
      vertex  3.750000e+001 -1.850000e+001  0.000000e+000
      vertex  3.750000e+001  2.350000e+001  5.000000e+000
      vertex  3.750000e+001  2.350000e+001  0.000000e+000
    endloop
  endfacet
  facet normal  0.000000e+000  1.000000e+000  0.000000e+000
    outer loop
      vertex -4.250000e+001  2.350000e+001  5.000000e+000
      vertex -3.750000e+001  2.350000e+001  5.000000e+000
      vertex -4.250000e+001  2.350000e+001  0.000000e+000
    endloop
  endfacet
  facet normal  0.000000e+000  1.000000e+000  0.000000e+000
    outer loop
      vertex -4.250000e+001  2.350000e+001  0.000000e+000
      vertex -3.750000e+001  2.350000e+001  5.000000e+000
      vertex -3.750000e+001  2.350000e+001  0.000000e+000
    endloop
  endfacet
  facet normal  0.000000e+000  1.000000e+000  0.000000e+000
    outer loop
      vertex  3.750000e+001  2.350000e+001  5.000000e+000
      vertex  4.250000e+001  2.350000e+001  5.000000e+000
      vertex  3.750000e+001  2.350000e+001  0.000000e+000
    endloop
  endfacet
  facet normal  0.000000e+000  1.000000e+000  0.000000e+000
    outer loop
      vertex  3.750000e+001  2.350000e+001  0.000000e+000
      vertex  4.250000e+001  2.350000e+001  5.000000e+000
      vertex  4.250000e+001  2.350000e+001  0.000000e+000
    endloop
  endfacet
endsolid CATIA STL
