solid CATIA STL
  facet normal  -0.000000e+000  0.000000e+000 -1.000000e+000
    outer loop
      vertex  7.000000e+000  6.000000e+000  0.000000e+000
      vertex  7.095491e+000  5.706107e+000  0.000000e+000
      vertex  5.000000e+000 -5.000000e+000  0.000000e+000
    endloop
  endfacet
  facet normal  -0.000000e+000  0.000000e+000 -1.000000e+000
    outer loop
      vertex  7.095491e+000  5.706107e+000  0.000000e+000
      vertex  7.345491e+000  5.524472e+000  0.000000e+000
      vertex  5.000000e+000 -5.000000e+000  0.000000e+000
    endloop
  endfacet
  facet normal  0.000000e+000  0.000000e+000 -1.000000e+000
    outer loop
      vertex  1.000000e+001 -5.000000e+000  0.000000e+000
      vertex  5.000000e+000 -5.000000e+000  0.000000e+000
      vertex  7.345491e+000  5.524472e+000  0.000000e+000
    endloop
  endfacet
  facet normal  0.000000e+000  0.000000e+000 -9.999999e-001
    outer loop
      vertex  1.000000e+001 -5.000000e+000  0.000000e+000
      vertex  7.345491e+000  5.524472e+000  0.000000e+000
      vertex  7.654509e+000  5.524472e+000  0.000000e+000
    endloop
  endfacet
  facet normal  0.000000e+000  0.000000e+000 -1.000000e+000
    outer loop
      vertex  1.000000e+001 -5.000000e+000  0.000000e+000
      vertex  7.654509e+000  5.524472e+000  0.000000e+000
      vertex  7.904509e+000  5.706107e+000  0.000000e+000
    endloop
  endfacet
  facet normal  0.000000e+000  0.000000e+000 -1.000000e+000
    outer loop
      vertex  1.000000e+001 -5.000000e+000  0.000000e+000
      vertex  7.904509e+000  5.706107e+000  0.000000e+000
      vertex  8.000000e+000  6.000000e+000  0.000000e+000
    endloop
  endfacet
  facet normal  -0.000000e+000  0.000000e+000 -1.000000e+000
    outer loop
      vertex  5.000000e+000  1.000000e+001  0.000000e+000
      vertex  1.000000e+001  1.000000e+001  0.000000e+000
      vertex  7.654509e+000  6.475528e+000  0.000000e+000
    endloop
  endfacet
  facet normal  0.000000e+000  0.000000e+000 -1.000000e+000
    outer loop
      vertex  5.000000e+000  1.000000e+001  0.000000e+000
      vertex  7.654509e+000  6.475528e+000  0.000000e+000
      vertex  7.345491e+000  6.475528e+000  0.000000e+000
    endloop
  endfacet
  facet normal  -0.000000e+000  0.000000e+000 -1.000000e+000
    outer loop
      vertex  5.000000e+000  1.000000e+001  0.000000e+000
      vertex  7.345491e+000  6.475528e+000  0.000000e+000
      vertex  7.095491e+000  6.293893e+000  0.000000e+000
    endloop
  endfacet
  facet normal  -0.000000e+000  0.000000e+000 -1.000000e+000
    outer loop
      vertex  5.000000e+000  1.000000e+001  0.000000e+000
      vertex  7.095491e+000  6.293893e+000  0.000000e+000
      vertex  7.000000e+000  6.000000e+000  0.000000e+000
    endloop
  endfacet
  facet normal  -0.000000e+000  0.000000e+000 -1.000000e+000
    outer loop
      vertex  5.000000e+000  1.000000e+001  0.000000e+000
      vertex  7.000000e+000  6.000000e+000  0.000000e+000
      vertex  5.000000e+000 -5.000000e+000  0.000000e+000
    endloop
  endfacet
  facet normal  0.000000e+000  0.000000e+000 -1.000000e+000
    outer loop
      vertex  1.000000e+001  1.000000e+001  0.000000e+000
      vertex  1.000000e+001 -5.000000e+000  0.000000e+000
      vertex  8.000000e+000  6.000000e+000  0.000000e+000
    endloop
  endfacet
  facet normal  0.000000e+000  0.000000e+000 -1.000000e+000
    outer loop
      vertex  1.000000e+001  1.000000e+001  0.000000e+000
      vertex  8.000000e+000  6.000000e+000  0.000000e+000
      vertex  7.904509e+000  6.293893e+000  0.000000e+000
    endloop
  endfacet
  facet normal  0.000000e+000  0.000000e+000 -1.000000e+000
    outer loop
      vertex  1.000000e+001  1.000000e+001  0.000000e+000
      vertex  7.904509e+000  6.293893e+000  0.000000e+000
      vertex  7.654509e+000  6.475528e+000  0.000000e+000
    endloop
  endfacet
  facet normal  -0.000000e+000  0.000000e+000 -1.000000e+000
    outer loop
      vertex -8.000000e+000  6.000000e+000  0.000000e+000
      vertex -7.904509e+000  5.706107e+000  0.000000e+000
      vertex -1.000000e+001 -5.000000e+000  0.000000e+000
    endloop
  endfacet
  facet normal  -0.000000e+000  0.000000e+000 -1.000000e+000
    outer loop
      vertex -7.904509e+000  5.706107e+000  0.000000e+000
      vertex -7.654509e+000  5.524472e+000  0.000000e+000
      vertex -1.000000e+001 -5.000000e+000  0.000000e+000
    endloop
  endfacet
  facet normal  0.000000e+000  0.000000e+000 -1.000000e+000
    outer loop
      vertex -5.000000e+000 -5.000000e+000  0.000000e+000
      vertex -1.000000e+001 -5.000000e+000  0.000000e+000
      vertex -7.654509e+000  5.524472e+000  0.000000e+000
    endloop
  endfacet
  facet normal  0.000000e+000  0.000000e+000 -9.999999e-001
    outer loop
      vertex -5.000000e+000 -5.000000e+000  0.000000e+000
      vertex -7.654509e+000  5.524472e+000  0.000000e+000
      vertex -7.345491e+000  5.524472e+000  0.000000e+000
    endloop
  endfacet
  facet normal  0.000000e+000  0.000000e+000 -1.000000e+000
    outer loop
      vertex -5.000000e+000 -5.000000e+000  0.000000e+000
      vertex -7.345491e+000  5.524472e+000  0.000000e+000
      vertex -7.095491e+000  5.706107e+000  0.000000e+000
    endloop
  endfacet
  facet normal  0.000000e+000  0.000000e+000 -1.000000e+000
    outer loop
      vertex -5.000000e+000 -5.000000e+000  0.000000e+000
      vertex -7.095491e+000  5.706107e+000  0.000000e+000
      vertex -7.000000e+000  6.000000e+000  0.000000e+000
    endloop
  endfacet
  facet normal  -0.000000e+000  0.000000e+000 -1.000000e+000
    outer loop
      vertex -1.000000e+001  1.000000e+001  0.000000e+000
      vertex -5.000000e+000  1.000000e+001  0.000000e+000
      vertex -7.345491e+000  6.475528e+000  0.000000e+000
    endloop
  endfacet
  facet normal  0.000000e+000  0.000000e+000 -1.000000e+000
    outer loop
      vertex -1.000000e+001  1.000000e+001  0.000000e+000
      vertex -7.345491e+000  6.475528e+000  0.000000e+000
      vertex -7.654509e+000  6.475528e+000  0.000000e+000
    endloop
  endfacet
  facet normal  -0.000000e+000  0.000000e+000 -1.000000e+000
    outer loop
      vertex -1.000000e+001  1.000000e+001  0.000000e+000
      vertex -7.654509e+000  6.475528e+000  0.000000e+000
      vertex -7.904509e+000  6.293893e+000  0.000000e+000
    endloop
  endfacet
  facet normal  -0.000000e+000  0.000000e+000 -1.000000e+000
    outer loop
      vertex -1.000000e+001  1.000000e+001  0.000000e+000
      vertex -7.904509e+000  6.293893e+000  0.000000e+000
      vertex -8.000000e+000  6.000000e+000  0.000000e+000
    endloop
  endfacet
  facet normal  -0.000000e+000  0.000000e+000 -1.000000e+000
    outer loop
      vertex -1.000000e+001  1.000000e+001  0.000000e+000
      vertex -8.000000e+000  6.000000e+000  0.000000e+000
      vertex -1.000000e+001 -5.000000e+000  0.000000e+000
    endloop
  endfacet
  facet normal  0.000000e+000  0.000000e+000 -1.000000e+000
    outer loop
      vertex -5.000000e+000  1.000000e+001  0.000000e+000
      vertex -5.000000e+000 -5.000000e+000  0.000000e+000
      vertex -7.000000e+000  6.000000e+000  0.000000e+000
    endloop
  endfacet
  facet normal  0.000000e+000  0.000000e+000 -1.000000e+000
    outer loop
      vertex -5.000000e+000  1.000000e+001  0.000000e+000
      vertex -7.000000e+000  6.000000e+000  0.000000e+000
      vertex -7.095491e+000  6.293893e+000  0.000000e+000
    endloop
  endfacet
  facet normal  0.000000e+000  0.000000e+000 -1.000000e+000
    outer loop
      vertex -5.000000e+000  1.000000e+001  0.000000e+000
      vertex -7.095491e+000  6.293893e+000  0.000000e+000
      vertex -7.345491e+000  6.475528e+000  0.000000e+000
    endloop
  endfacet
  facet normal  0.000000e+000  0.000000e+000  1.000000e+000
    outer loop
      vertex  5.000000e+000 -5.000000e+000  5.000000e+000
      vertex  7.095491e+000  5.706107e+000  5.000000e+000
      vertex  7.000000e+000  6.000000e+000  5.000000e+000
    endloop
  endfacet
  facet normal  0.000000e+000  0.000000e+000  1.000000e+000
    outer loop
      vertex  5.000000e+000 -5.000000e+000  5.000000e+000
      vertex  7.345491e+000  5.524472e+000  5.000000e+000
      vertex  7.095491e+000  5.706107e+000  5.000000e+000
    endloop
  endfacet
  facet normal  0.000000e+000  0.000000e+000  1.000000e+000
    outer loop
      vertex -5.000000e+000 -5.000000e+000  5.000000e+000
      vertex -7.095491e+000  5.706107e+000  5.000000e+000
      vertex -7.345491e+000  5.524472e+000  5.000000e+000
    endloop
  endfacet
  facet normal  0.000000e+000  0.000000e+000  1.000000e+000
    outer loop
      vertex -5.000000e+000 -5.000000e+000  5.000000e+000
      vertex -7.000000e+000  6.000000e+000  5.000000e+000
      vertex -7.095491e+000  5.706107e+000  5.000000e+000
    endloop
  endfacet
  facet normal  0.000000e+000  0.000000e+000  1.000000e+000
    outer loop
      vertex  1.000000e+001 -1.000000e+001  5.000000e+000
      vertex  8.000000e+000  6.000000e+000  5.000000e+000
      vertex  7.904509e+000  5.706107e+000  5.000000e+000
    endloop
  endfacet
  facet normal  0.000000e+000  0.000000e+000  1.000000e+000
    outer loop
      vertex  1.000000e+001 -1.000000e+001  5.000000e+000
      vertex  7.904509e+000  5.706107e+000  5.000000e+000
      vertex  7.654509e+000  5.524472e+000  5.000000e+000
    endloop
  endfacet
  facet normal  0.000000e+000  0.000000e+000  1.000000e+000
    outer loop
      vertex  1.000000e+001 -1.000000e+001  5.000000e+000
      vertex  7.654509e+000  5.524472e+000  5.000000e+000
      vertex  7.345491e+000  5.524472e+000  5.000000e+000
    endloop
  endfacet
  facet normal  0.000000e+000  0.000000e+000  1.000000e+000
    outer loop
      vertex  1.000000e+001 -1.000000e+001  5.000000e+000
      vertex  7.345491e+000  5.524472e+000  5.000000e+000
      vertex  5.000000e+000 -5.000000e+000  5.000000e+000
    endloop
  endfacet
  facet normal  0.000000e+000  0.000000e+000  1.000000e+000
    outer loop
      vertex  1.000000e+001 -1.000000e+001  5.000000e+000
      vertex  5.000000e+000 -5.000000e+000  5.000000e+000
      vertex -1.000000e+001 -1.000000e+001  5.000000e+000
    endloop
  endfacet
  facet normal  0.000000e+000  0.000000e+000  1.000000e+000
    outer loop
      vertex -1.000000e+001 -1.000000e+001  5.000000e+000
      vertex  5.000000e+000 -5.000000e+000  5.000000e+000
      vertex -5.000000e+000 -5.000000e+000  5.000000e+000
    endloop
  endfacet
  facet normal  0.000000e+000  0.000000e+000  1.000000e+000
    outer loop
      vertex -1.000000e+001 -1.000000e+001  5.000000e+000
      vertex -5.000000e+000 -5.000000e+000  5.000000e+000
      vertex -7.345491e+000  5.524472e+000  5.000000e+000
    endloop
  endfacet
  facet normal  0.000000e+000  0.000000e+000  1.000000e+000
    outer loop
      vertex -1.000000e+001 -1.000000e+001  5.000000e+000
      vertex -7.345491e+000  5.524472e+000  5.000000e+000
      vertex -7.654509e+000  5.524472e+000  5.000000e+000
    endloop
  endfacet
  facet normal  0.000000e+000  0.000000e+000  1.000000e+000
    outer loop
      vertex -1.000000e+001 -1.000000e+001  5.000000e+000
      vertex -7.654509e+000  5.524472e+000  5.000000e+000
      vertex -7.904509e+000  5.706107e+000  5.000000e+000
    endloop
  endfacet
  facet normal  0.000000e+000  0.000000e+000  1.000000e+000
    outer loop
      vertex -1.000000e+001 -1.000000e+001  5.000000e+000
      vertex -7.904509e+000  5.706107e+000  5.000000e+000
      vertex -8.000000e+000  6.000000e+000  5.000000e+000
    endloop
  endfacet
  facet normal  0.000000e+000  0.000000e+000  1.000000e+000
    outer loop
      vertex  5.000000e+000  1.000000e+001  5.000000e+000
      vertex  5.000000e+000 -5.000000e+000  5.000000e+000
      vertex  7.000000e+000  6.000000e+000  5.000000e+000
    endloop
  endfacet
  facet normal  0.000000e+000  -0.000000e+000  1.000000e+000
    outer loop
      vertex  5.000000e+000  1.000000e+001  5.000000e+000
      vertex  7.000000e+000  6.000000e+000  5.000000e+000
      vertex  7.095491e+000  6.293893e+000  5.000000e+000
    endloop
  endfacet
  facet normal  0.000000e+000  -0.000000e+000  1.000000e+000
    outer loop
      vertex  5.000000e+000  1.000000e+001  5.000000e+000
      vertex  7.095491e+000  6.293893e+000  5.000000e+000
      vertex  7.345491e+000  6.475528e+000  5.000000e+000
    endloop
  endfacet
  facet normal  0.000000e+000  -0.000000e+000  1.000000e+000
    outer loop
      vertex  5.000000e+000  1.000000e+001  5.000000e+000
      vertex  7.345491e+000  6.475528e+000  5.000000e+000
      vertex  7.654509e+000  6.475528e+000  5.000000e+000
    endloop
  endfacet
  facet normal  0.000000e+000  -0.000000e+000  1.000000e+000
    outer loop
      vertex  5.000000e+000  1.000000e+001  5.000000e+000
      vertex  7.654509e+000  6.475528e+000  5.000000e+000
      vertex  1.000000e+001  1.000000e+001  5.000000e+000
    endloop
  endfacet
  facet normal  0.000000e+000  0.000000e+000  1.000000e+000
    outer loop
      vertex -1.000000e+001  1.000000e+001  5.000000e+000
      vertex -1.000000e+001 -1.000000e+001  5.000000e+000
      vertex -8.000000e+000  6.000000e+000  5.000000e+000
    endloop
  endfacet
  facet normal  0.000000e+000  -0.000000e+000  1.000000e+000
    outer loop
      vertex -1.000000e+001  1.000000e+001  5.000000e+000
      vertex -8.000000e+000  6.000000e+000  5.000000e+000
      vertex -7.904509e+000  6.293893e+000  5.000000e+000
    endloop
  endfacet
  facet normal  0.000000e+000  -0.000000e+000  1.000000e+000
    outer loop
      vertex -1.000000e+001  1.000000e+001  5.000000e+000
      vertex -7.904509e+000  6.293893e+000  5.000000e+000
      vertex -7.654509e+000  6.475528e+000  5.000000e+000
    endloop
  endfacet
  facet normal  0.000000e+000  -0.000000e+000  1.000000e+000
    outer loop
      vertex -1.000000e+001  1.000000e+001  5.000000e+000
      vertex -7.654509e+000  6.475528e+000  5.000000e+000
      vertex -7.345491e+000  6.475528e+000  5.000000e+000
    endloop
  endfacet
  facet normal  0.000000e+000  -0.000000e+000  1.000000e+000
    outer loop
      vertex -1.000000e+001  1.000000e+001  5.000000e+000
      vertex -7.345491e+000  6.475528e+000  5.000000e+000
      vertex -5.000000e+000  1.000000e+001  5.000000e+000
    endloop
  endfacet
  facet normal  -0.000000e+000  0.000000e+000  1.000000e+000
    outer loop
      vertex -5.000000e+000  1.000000e+001  5.000000e+000
      vertex -7.345491e+000  6.475528e+000  5.000000e+000
      vertex -7.095491e+000  6.293893e+000  5.000000e+000
    endloop
  endfacet
  facet normal  -0.000000e+000  0.000000e+000  1.000000e+000
    outer loop
      vertex -5.000000e+000  1.000000e+001  5.000000e+000
      vertex -7.095491e+000  6.293893e+000  5.000000e+000
      vertex -7.000000e+000  6.000000e+000  5.000000e+000
    endloop
  endfacet
  facet normal  -0.000000e+000  0.000000e+000  1.000000e+000
    outer loop
      vertex -5.000000e+000  1.000000e+001  5.000000e+000
      vertex -7.000000e+000  6.000000e+000  5.000000e+000
      vertex -5.000000e+000 -5.000000e+000  5.000000e+000
    endloop
  endfacet
  facet normal  -0.000000e+000  0.000000e+000  1.000000e+000
    outer loop
      vertex  1.000000e+001  1.000000e+001  5.000000e+000
      vertex  7.654509e+000  6.475528e+000  5.000000e+000
      vertex  7.904509e+000  6.293893e+000  5.000000e+000
    endloop
  endfacet
  facet normal  -0.000000e+000  0.000000e+000  1.000000e+000
    outer loop
      vertex  1.000000e+001  1.000000e+001  5.000000e+000
      vertex  7.904509e+000  6.293893e+000  5.000000e+000
      vertex  8.000000e+000  6.000000e+000  5.000000e+000
    endloop
  endfacet
  facet normal  -0.000000e+000  0.000000e+000  1.000000e+000
    outer loop
      vertex  1.000000e+001  1.000000e+001  5.000000e+000
      vertex  8.000000e+000  6.000000e+000  5.000000e+000
      vertex  1.000000e+001 -1.000000e+001  5.000000e+000
    endloop
  endfacet
  facet normal  5.877847e-001 -8.090174e-001  0.000000e+000
    outer loop
      vertex  7.345491e+000  6.475528e+000  0.000000e+000
      vertex  7.095491e+000  6.293893e+000  5.000000e+000
      vertex  7.095491e+000  6.293893e+000  0.000000e+000
    endloop
  endfacet
  facet normal  9.510567e-001 -3.090165e-001  0.000000e+000
    outer loop
      vertex  7.095491e+000  6.293893e+000  0.000000e+000
      vertex  7.095491e+000  6.293893e+000  5.000000e+000
      vertex  7.000000e+000  6.000000e+000  5.000000e+000
    endloop
  endfacet
  facet normal  9.510567e-001 -3.090165e-001  0.000000e+000
    outer loop
      vertex  7.095491e+000  6.293893e+000  0.000000e+000
      vertex  7.000000e+000  6.000000e+000  5.000000e+000
      vertex  7.000000e+000  6.000000e+000  0.000000e+000
    endloop
  endfacet
  facet normal  5.877847e-001 -8.090174e-001  0.000000e+000
    outer loop
      vertex  7.095491e+000  6.293893e+000  5.000000e+000
      vertex  7.345491e+000  6.475528e+000  0.000000e+000
      vertex  7.345491e+000  6.475528e+000  5.000000e+000
    endloop
  endfacet
  facet normal  0.000000e+000 -1.000000e+000  0.000000e+000
    outer loop
      vertex  7.345491e+000  6.475528e+000  5.000000e+000
      vertex  7.345491e+000  6.475528e+000  0.000000e+000
      vertex  7.654509e+000  6.475528e+000  0.000000e+000
    endloop
  endfacet
  facet normal  0.000000e+000 -1.000000e+000  0.000000e+000
    outer loop
      vertex  7.345491e+000  6.475528e+000  5.000000e+000
      vertex  7.654509e+000  6.475528e+000  0.000000e+000
      vertex  7.654509e+000  6.475528e+000  5.000000e+000
    endloop
  endfacet
  facet normal -5.877847e-001 -8.090174e-001  -0.000000e+000
    outer loop
      vertex  7.654509e+000  6.475528e+000  5.000000e+000
      vertex  7.654509e+000  6.475528e+000  0.000000e+000
      vertex  7.904509e+000  6.293893e+000  0.000000e+000
    endloop
  endfacet
  facet normal -5.877847e-001 -8.090174e-001  0.000000e+000
    outer loop
      vertex  7.654509e+000  6.475528e+000  5.000000e+000
      vertex  7.904509e+000  6.293893e+000  0.000000e+000
      vertex  7.904509e+000  6.293893e+000  5.000000e+000
    endloop
  endfacet
  facet normal -9.510567e-001 -3.090165e-001  -0.000000e+000
    outer loop
      vertex  7.904509e+000  6.293893e+000  5.000000e+000
      vertex  7.904509e+000  6.293893e+000  0.000000e+000
      vertex  8.000000e+000  6.000000e+000  0.000000e+000
    endloop
  endfacet
  facet normal -9.510567e-001 -3.090165e-001  0.000000e+000
    outer loop
      vertex  7.904509e+000  6.293893e+000  5.000000e+000
      vertex  8.000000e+000  6.000000e+000  0.000000e+000
      vertex  8.000000e+000  6.000000e+000  5.000000e+000
    endloop
  endfacet
  facet normal -5.877847e-001  8.090174e-001  0.000000e+000
    outer loop
      vertex  7.654509e+000  5.524472e+000  0.000000e+000
      vertex  7.904509e+000  5.706107e+000  5.000000e+000
      vertex  7.904509e+000  5.706107e+000  0.000000e+000
    endloop
  endfacet
  facet normal -9.510567e-001  3.090165e-001  0.000000e+000
    outer loop
      vertex  7.904509e+000  5.706107e+000  0.000000e+000
      vertex  7.904509e+000  5.706107e+000  5.000000e+000
      vertex  8.000000e+000  6.000000e+000  5.000000e+000
    endloop
  endfacet
  facet normal -9.510567e-001  3.090165e-001  0.000000e+000
    outer loop
      vertex  7.904509e+000  5.706107e+000  0.000000e+000
      vertex  8.000000e+000  6.000000e+000  5.000000e+000
      vertex  8.000000e+000  6.000000e+000  0.000000e+000
    endloop
  endfacet
  facet normal -5.877847e-001  8.090174e-001  0.000000e+000
    outer loop
      vertex  7.904509e+000  5.706107e+000  5.000000e+000
      vertex  7.654509e+000  5.524472e+000  0.000000e+000
      vertex  7.654509e+000  5.524472e+000  5.000000e+000
    endloop
  endfacet
  facet normal  0.000000e+000  1.000000e+000  0.000000e+000
    outer loop
      vertex  7.654509e+000  5.524472e+000  5.000000e+000
      vertex  7.654509e+000  5.524472e+000  0.000000e+000
      vertex  7.345491e+000  5.524472e+000  0.000000e+000
    endloop
  endfacet
  facet normal  0.000000e+000  1.000000e+000  0.000000e+000
    outer loop
      vertex  7.654509e+000  5.524472e+000  5.000000e+000
      vertex  7.345491e+000  5.524472e+000  0.000000e+000
      vertex  7.345491e+000  5.524472e+000  5.000000e+000
    endloop
  endfacet
  facet normal  5.877847e-001  8.090174e-001  0.000000e+000
    outer loop
      vertex  7.345491e+000  5.524472e+000  5.000000e+000
      vertex  7.345491e+000  5.524472e+000  0.000000e+000
      vertex  7.095491e+000  5.706107e+000  0.000000e+000
    endloop
  endfacet
  facet normal  5.877847e-001  8.090174e-001  -0.000000e+000
    outer loop
      vertex  7.345491e+000  5.524472e+000  5.000000e+000
      vertex  7.095491e+000  5.706107e+000  0.000000e+000
      vertex  7.095491e+000  5.706107e+000  5.000000e+000
    endloop
  endfacet
  facet normal  9.510567e-001  3.090165e-001  0.000000e+000
    outer loop
      vertex  7.095491e+000  5.706107e+000  5.000000e+000
      vertex  7.095491e+000  5.706107e+000  0.000000e+000
      vertex  7.000000e+000  6.000000e+000  0.000000e+000
    endloop
  endfacet
  facet normal  9.510567e-001  3.090165e-001  -0.000000e+000
    outer loop
      vertex  7.095491e+000  5.706107e+000  5.000000e+000
      vertex  7.000000e+000  6.000000e+000  0.000000e+000
      vertex  7.000000e+000  6.000000e+000  5.000000e+000
    endloop
  endfacet
  facet normal  5.877847e-001 -8.090174e-001  0.000000e+000
    outer loop
      vertex -7.654509e+000  6.475528e+000  0.000000e+000
      vertex -7.904509e+000  6.293893e+000  5.000000e+000
      vertex -7.904509e+000  6.293893e+000  0.000000e+000
    endloop
  endfacet
  facet normal  9.510567e-001 -3.090165e-001  0.000000e+000
    outer loop
      vertex -7.904509e+000  6.293893e+000  0.000000e+000
      vertex -7.904509e+000  6.293893e+000  5.000000e+000
      vertex -8.000000e+000  6.000000e+000  5.000000e+000
    endloop
  endfacet
  facet normal  9.510567e-001 -3.090165e-001  0.000000e+000
    outer loop
      vertex -7.904509e+000  6.293893e+000  0.000000e+000
      vertex -8.000000e+000  6.000000e+000  5.000000e+000
      vertex -8.000000e+000  6.000000e+000  0.000000e+000
    endloop
  endfacet
  facet normal  5.877847e-001 -8.090174e-001  0.000000e+000
    outer loop
      vertex -7.904509e+000  6.293893e+000  5.000000e+000
      vertex -7.654509e+000  6.475528e+000  0.000000e+000
      vertex -7.654509e+000  6.475528e+000  5.000000e+000
    endloop
  endfacet
  facet normal  0.000000e+000 -1.000000e+000  0.000000e+000
    outer loop
      vertex -7.654509e+000  6.475528e+000  5.000000e+000
      vertex -7.654509e+000  6.475528e+000  0.000000e+000
      vertex -7.345491e+000  6.475528e+000  0.000000e+000
    endloop
  endfacet
  facet normal  0.000000e+000 -1.000000e+000  0.000000e+000
    outer loop
      vertex -7.654509e+000  6.475528e+000  5.000000e+000
      vertex -7.345491e+000  6.475528e+000  0.000000e+000
      vertex -7.345491e+000  6.475528e+000  5.000000e+000
    endloop
  endfacet
  facet normal -5.877847e-001 -8.090174e-001  -0.000000e+000
    outer loop
      vertex -7.345491e+000  6.475528e+000  5.000000e+000
      vertex -7.345491e+000  6.475528e+000  0.000000e+000
      vertex -7.095491e+000  6.293893e+000  0.000000e+000
    endloop
  endfacet
  facet normal -5.877847e-001 -8.090174e-001  0.000000e+000
    outer loop
      vertex -7.345491e+000  6.475528e+000  5.000000e+000
      vertex -7.095491e+000  6.293893e+000  0.000000e+000
      vertex -7.095491e+000  6.293893e+000  5.000000e+000
    endloop
  endfacet
  facet normal -9.510567e-001 -3.090165e-001  -0.000000e+000
    outer loop
      vertex -7.095491e+000  6.293893e+000  5.000000e+000
      vertex -7.095491e+000  6.293893e+000  0.000000e+000
      vertex -7.000000e+000  6.000000e+000  0.000000e+000
    endloop
  endfacet
  facet normal -9.510567e-001 -3.090165e-001  0.000000e+000
    outer loop
      vertex -7.095491e+000  6.293893e+000  5.000000e+000
      vertex -7.000000e+000  6.000000e+000  0.000000e+000
      vertex -7.000000e+000  6.000000e+000  5.000000e+000
    endloop
  endfacet
  facet normal -5.877847e-001  8.090174e-001  0.000000e+000
    outer loop
      vertex -7.345491e+000  5.524472e+000  0.000000e+000
      vertex -7.095491e+000  5.706107e+000  5.000000e+000
      vertex -7.095491e+000  5.706107e+000  0.000000e+000
    endloop
  endfacet
  facet normal -9.510567e-001  3.090165e-001  0.000000e+000
    outer loop
      vertex -7.095491e+000  5.706107e+000  0.000000e+000
      vertex -7.095491e+000  5.706107e+000  5.000000e+000
      vertex -7.000000e+000  6.000000e+000  5.000000e+000
    endloop
  endfacet
  facet normal -9.510567e-001  3.090165e-001  0.000000e+000
    outer loop
      vertex -7.095491e+000  5.706107e+000  0.000000e+000
      vertex -7.000000e+000  6.000000e+000  5.000000e+000
      vertex -7.000000e+000  6.000000e+000  0.000000e+000
    endloop
  endfacet
  facet normal -5.877847e-001  8.090174e-001  0.000000e+000
    outer loop
      vertex -7.095491e+000  5.706107e+000  5.000000e+000
      vertex -7.345491e+000  5.524472e+000  0.000000e+000
      vertex -7.345491e+000  5.524472e+000  5.000000e+000
    endloop
  endfacet
  facet normal  0.000000e+000  1.000000e+000  0.000000e+000
    outer loop
      vertex -7.345491e+000  5.524472e+000  5.000000e+000
      vertex -7.345491e+000  5.524472e+000  0.000000e+000
      vertex -7.654509e+000  5.524472e+000  0.000000e+000
    endloop
  endfacet
  facet normal  0.000000e+000  1.000000e+000  0.000000e+000
    outer loop
      vertex -7.345491e+000  5.524472e+000  5.000000e+000
      vertex -7.654509e+000  5.524472e+000  0.000000e+000
      vertex -7.654509e+000  5.524472e+000  5.000000e+000
    endloop
  endfacet
  facet normal  5.877847e-001  8.090174e-001  0.000000e+000
    outer loop
      vertex -7.654509e+000  5.524472e+000  5.000000e+000
      vertex -7.654509e+000  5.524472e+000  0.000000e+000
      vertex -7.904509e+000  5.706107e+000  0.000000e+000
    endloop
  endfacet
  facet normal  5.877847e-001  8.090174e-001  -0.000000e+000
    outer loop
      vertex -7.654509e+000  5.524472e+000  5.000000e+000
      vertex -7.904509e+000  5.706107e+000  0.000000e+000
      vertex -7.904509e+000  5.706107e+000  5.000000e+000
    endloop
  endfacet
  facet normal  9.510567e-001  3.090165e-001  0.000000e+000
    outer loop
      vertex -7.904509e+000  5.706107e+000  5.000000e+000
      vertex -7.904509e+000  5.706107e+000  0.000000e+000
      vertex -8.000000e+000  6.000000e+000  0.000000e+000
    endloop
  endfacet
  facet normal  9.510567e-001  3.090165e-001  -0.000000e+000
    outer loop
      vertex -7.904509e+000  5.706107e+000  5.000000e+000
      vertex -8.000000e+000  6.000000e+000  0.000000e+000
      vertex -8.000000e+000  6.000000e+000  5.000000e+000
    endloop
  endfacet
  facet normal  -0.000000e+000  0.000000e+000 -1.000000e+000
    outer loop
      vertex -1.000000e+001 -5.000000e+000 -1.000000e+001
      vertex  1.000000e+001 -5.000000e+000 -1.000000e+001
      vertex -1.000000e+001 -1.000000e+001 -1.000000e+001
    endloop
  endfacet
  facet normal  0.000000e+000  0.000000e+000 -1.000000e+000
    outer loop
      vertex -1.000000e+001 -1.000000e+001 -1.000000e+001
      vertex  1.000000e+001 -5.000000e+000 -1.000000e+001
      vertex  1.000000e+001 -1.000000e+001 -1.000000e+001
    endloop
  endfacet
  facet normal -1.000000e+000  0.000000e+000  0.000000e+000
    outer loop
      vertex -1.000000e+001 -1.000000e+001 -1.000000e+001
      vertex -1.000000e+001 -1.000000e+001  5.000000e+000
      vertex -1.000000e+001 -5.000000e+000 -1.000000e+001
    endloop
  endfacet
  facet normal -1.000000e+000  0.000000e+000  0.000000e+000
    outer loop
      vertex -1.000000e+001 -5.000000e+000 -1.000000e+001
      vertex -1.000000e+001 -1.000000e+001  5.000000e+000
      vertex -1.000000e+001 -5.000000e+000  0.000000e+000
    endloop
  endfacet
  facet normal -1.000000e+000  -0.000000e+000  0.000000e+000
    outer loop
      vertex -1.000000e+001 -1.000000e+001  5.000000e+000
      vertex -1.000000e+001  1.000000e+001  5.000000e+000
      vertex -1.000000e+001 -5.000000e+000  0.000000e+000
    endloop
  endfacet
  facet normal -1.000000e+000  0.000000e+000  0.000000e+000
    outer loop
      vertex -1.000000e+001 -5.000000e+000  0.000000e+000
      vertex -1.000000e+001  1.000000e+001  5.000000e+000
      vertex -1.000000e+001  1.000000e+001  0.000000e+000
    endloop
  endfacet
  facet normal  0.000000e+000 -1.000000e+000  -0.000000e+000
    outer loop
      vertex  1.000000e+001 -1.000000e+001 -1.000000e+001
      vertex  1.000000e+001 -1.000000e+001  5.000000e+000
      vertex -1.000000e+001 -1.000000e+001 -1.000000e+001
    endloop
  endfacet
  facet normal  0.000000e+000 -1.000000e+000  0.000000e+000
    outer loop
      vertex -1.000000e+001 -1.000000e+001 -1.000000e+001
      vertex  1.000000e+001 -1.000000e+001  5.000000e+000
      vertex -1.000000e+001 -1.000000e+001  5.000000e+000
    endloop
  endfacet
  facet normal  0.000000e+000  1.000000e+000  0.000000e+000
    outer loop
      vertex  1.000000e+001 -5.000000e+000 -1.000000e+001
      vertex -1.000000e+001 -5.000000e+000 -1.000000e+001
      vertex -1.000000e+001 -5.000000e+000  0.000000e+000
    endloop
  endfacet
  facet normal  -0.000000e+000  1.000000e+000  0.000000e+000
    outer loop
      vertex  1.000000e+001 -5.000000e+000 -1.000000e+001
      vertex -1.000000e+001 -5.000000e+000  0.000000e+000
      vertex -5.000000e+000 -5.000000e+000  0.000000e+000
    endloop
  endfacet
  facet normal  -0.000000e+000  1.000000e+000  0.000000e+000
    outer loop
      vertex  1.000000e+001 -5.000000e+000 -1.000000e+001
      vertex -5.000000e+000 -5.000000e+000  0.000000e+000
      vertex  5.000000e+000 -5.000000e+000  0.000000e+000
    endloop
  endfacet
  facet normal  -0.000000e+000  1.000000e+000  0.000000e+000
    outer loop
      vertex  1.000000e+001 -5.000000e+000 -1.000000e+001
      vertex  5.000000e+000 -5.000000e+000  0.000000e+000
      vertex  1.000000e+001 -5.000000e+000  0.000000e+000
    endloop
  endfacet
  facet normal  0.000000e+000  1.000000e+000  0.000000e+000
    outer loop
      vertex  5.000000e+000 -5.000000e+000  0.000000e+000
      vertex -5.000000e+000 -5.000000e+000  0.000000e+000
      vertex  5.000000e+000 -5.000000e+000  5.000000e+000
    endloop
  endfacet
  facet normal  0.000000e+000  1.000000e+000  0.000000e+000
    outer loop
      vertex  5.000000e+000 -5.000000e+000  5.000000e+000
      vertex -5.000000e+000 -5.000000e+000  0.000000e+000
      vertex -5.000000e+000 -5.000000e+000  5.000000e+000
    endloop
  endfacet
  facet normal  1.000000e+000  -0.000000e+000  0.000000e+000
    outer loop
      vertex  1.000000e+001  1.000000e+001  5.000000e+000
      vertex  1.000000e+001 -1.000000e+001  5.000000e+000
      vertex  1.000000e+001  1.000000e+001  0.000000e+000
    endloop
  endfacet
  facet normal  1.000000e+000  0.000000e+000  0.000000e+000
    outer loop
      vertex  1.000000e+001  1.000000e+001  0.000000e+000
      vertex  1.000000e+001 -1.000000e+001  5.000000e+000
      vertex  1.000000e+001 -5.000000e+000  0.000000e+000
    endloop
  endfacet
  facet normal  1.000000e+000  0.000000e+000  0.000000e+000
    outer loop
      vertex  1.000000e+001 -1.000000e+001  5.000000e+000
      vertex  1.000000e+001 -1.000000e+001 -1.000000e+001
      vertex  1.000000e+001 -5.000000e+000  0.000000e+000
    endloop
  endfacet
  facet normal  1.000000e+000  0.000000e+000  0.000000e+000
    outer loop
      vertex  1.000000e+001 -5.000000e+000  0.000000e+000
      vertex  1.000000e+001 -1.000000e+001 -1.000000e+001
      vertex  1.000000e+001 -5.000000e+000 -1.000000e+001
    endloop
  endfacet
  facet normal  1.000000e+000  -0.000000e+000  0.000000e+000
    outer loop
      vertex -5.000000e+000  1.000000e+001  5.000000e+000
      vertex -5.000000e+000 -5.000000e+000  5.000000e+000
      vertex -5.000000e+000  1.000000e+001  0.000000e+000
    endloop
  endfacet
  facet normal  1.000000e+000  0.000000e+000  0.000000e+000
    outer loop
      vertex -5.000000e+000  1.000000e+001  0.000000e+000
      vertex -5.000000e+000 -5.000000e+000  5.000000e+000
      vertex -5.000000e+000 -5.000000e+000  0.000000e+000
    endloop
  endfacet
  facet normal -1.000000e+000  -0.000000e+000  0.000000e+000
    outer loop
      vertex  5.000000e+000 -5.000000e+000  5.000000e+000
      vertex  5.000000e+000  1.000000e+001  5.000000e+000
      vertex  5.000000e+000 -5.000000e+000  0.000000e+000
    endloop
  endfacet
  facet normal -1.000000e+000  0.000000e+000  0.000000e+000
    outer loop
      vertex  5.000000e+000 -5.000000e+000  0.000000e+000
      vertex  5.000000e+000  1.000000e+001  5.000000e+000
      vertex  5.000000e+000  1.000000e+001  0.000000e+000
    endloop
  endfacet
  facet normal  0.000000e+000  1.000000e+000  0.000000e+000
    outer loop
      vertex -1.000000e+001  1.000000e+001  5.000000e+000
      vertex -5.000000e+000  1.000000e+001  5.000000e+000
      vertex -1.000000e+001  1.000000e+001  0.000000e+000
    endloop
  endfacet
  facet normal  0.000000e+000  1.000000e+000  0.000000e+000
    outer loop
      vertex -1.000000e+001  1.000000e+001  0.000000e+000
      vertex -5.000000e+000  1.000000e+001  5.000000e+000
      vertex -5.000000e+000  1.000000e+001  0.000000e+000
    endloop
  endfacet
  facet normal  0.000000e+000  1.000000e+000  0.000000e+000
    outer loop
      vertex  5.000000e+000  1.000000e+001  5.000000e+000
      vertex  1.000000e+001  1.000000e+001  5.000000e+000
      vertex  5.000000e+000  1.000000e+001  0.000000e+000
    endloop
  endfacet
  facet normal  0.000000e+000  1.000000e+000  0.000000e+000
    outer loop
      vertex  5.000000e+000  1.000000e+001  0.000000e+000
      vertex  1.000000e+001  1.000000e+001  5.000000e+000
      vertex  1.000000e+001  1.000000e+001  0.000000e+000
    endloop
  endfacet
endsolid CATIA STL
